<?xml version="1.0" encoding="utf-8"?>
<!-- Generator: Adobe Illustrator 16.0.0, SVG Export Plug-In . SVG Version: 6.00 Build 0)  -->
<!DOCTYPE svg PUBLIC "-//W3C//DTD SVG 1.1//EN" "http://www.w3.org/Graphics/SVG/1.1/DTD/svg11.dtd">
<svg version="1.1" id="Layer_1" xmlns="http://www.w3.org/2000/svg" xmlns:xlink="http://www.w3.org/1999/xlink" x="0px" y="0px"
	 width="132.25px" height="71.328px" viewBox="0 0 132.25 71.328" enable-background="new 0 0 132.25 71.328" xml:space="preserve">
<g>
	<path fill="#FFFFFF" d="M6.875,66.164c0,0,4.75-45.5,41.25-55l2.75-1c0,0-31,28.5-33,57.75l-10.5,0.25L6.875,66.164z"/>
	
		<linearGradient id="SVGID_1_" gradientUnits="userSpaceOnUse" x1="252" y1="755.3359" x2="384.25" y2="755.3359" gradientTransform="matrix(1 0 0 1 -252 -719.6719)">
		<stop  offset="0" style="stop-color:#C49A6C"/>
		<stop  offset="0.2202" style="stop-color:#C49A6C"/>
		<stop  offset="1" style="stop-color:#8B5E3C"/>
	</linearGradient>
	<path fill="url(#SVGID_1_)" d="M129.533,66.328h-2.321c-0.789-32.452-26.907-58.607-59.344-59.455
		c1.141-0.622,1.923-1.816,1.923-3.207C69.791,1.642,68.15,0,66.125,0c-2.025,0-3.667,1.642-3.667,3.667
		c0,1.395,0.788,2.593,1.934,3.213C32.066,7.849,6.074,33.956,5.288,66.328h-2.57c-1.501,0-2.718,1.119-2.718,2.5
		s1.217,2.5,2.718,2.5h126.815c1.499,0,2.717-1.119,2.717-2.5S131.032,66.328,129.533,66.328z M14.875,66.333h-5.25
		c0,0,1-41.25,38-54C47.625,12.333,17.625,26.333,14.875,66.333z"/>
	<g>
		<path fill="#42210B" d="M35.11,49.051c-0.169,0.396-0.404,0.745-0.701,1.041c-0.296,0.297-0.644,0.532-1.04,0.701
			s-0.821,0.256-1.273,0.256h-0.948c-0.452,0-0.878-0.087-1.278-0.256s-0.747-0.402-1.043-0.698
			c-0.296-0.298-0.531-0.645-0.701-1.04s-0.255-0.822-0.255-1.272v-7.154c0-0.452,0.085-0.876,0.255-1.272
			c0.169-0.396,0.404-0.744,0.701-1.039c0.296-0.297,0.645-0.531,1.044-0.702c0.4-0.169,0.826-0.255,1.278-0.255h0.948
			c0.452,0,0.876,0.086,1.273,0.255c0.396,0.171,0.744,0.405,1.041,0.702c0.296,0.295,0.531,0.644,0.7,1.039
			c0.17,0.396,0.256,0.82,0.256,1.272v0.539l-1.199,0.187v-0.726c0-0.299-0.055-0.573-0.167-0.831
			c-0.111-0.257-0.263-0.48-0.455-0.674c-0.192-0.189-0.417-0.344-0.674-0.453c-0.256-0.111-0.536-0.169-0.832-0.169h-0.835
			c-0.298,0-0.574,0.054-0.831,0.165s-0.484,0.264-0.679,0.456c-0.195,0.19-0.349,0.418-0.46,0.675
			c-0.111,0.258-0.167,0.532-0.167,0.83v7.152c0,0.299,0.056,0.574,0.167,0.83c0.111,0.259,0.265,0.483,0.46,0.68
			c0.195,0.195,0.422,0.35,0.679,0.46c0.256,0.11,0.534,0.167,0.831,0.167h0.835c0.298,0,0.574-0.057,0.831-0.167
			c0.257-0.11,0.482-0.265,0.674-0.46c0.191-0.195,0.344-0.421,0.455-0.68c0.111-0.256,0.167-0.532,0.167-0.83v-0.725l1.199,0.194
			v0.528C35.368,48.232,35.282,48.654,35.11,49.051z"/>
		<path fill="#42210B" d="M43.626,50.864l-0.631-0.966c-0.26,0.354-0.585,0.633-0.976,0.84c-0.39,0.207-0.818,0.312-1.283,0.312
			h-0.288c-0.384,0-0.747-0.071-1.087-0.218c-0.341-0.146-0.638-0.348-0.893-0.602c-0.255-0.254-0.454-0.551-0.599-0.893
			c-0.146-0.341-0.219-0.703-0.219-1.087v-6.903h1.144v6.969c0,0.229,0.042,0.442,0.129,0.645c0.087,0.201,0.205,0.377,0.354,0.525
			c0.149,0.149,0.324,0.266,0.525,0.354c0.201,0.087,0.417,0.131,0.646,0.131h0.761c0.23,0,0.444-0.044,0.645-0.131
			c0.201-0.089,0.376-0.204,0.525-0.354c0.149-0.148,0.266-0.324,0.354-0.525c0.086-0.201,0.13-0.416,0.13-0.645v-6.969h1.143v9.514
			h-0.378v0.003H43.626z"/>
		<path fill="#42210B" d="M52.831,48.45c0,0.383-0.078,0.733-0.231,1.053c-0.154,0.319-0.366,0.595-0.632,0.824
			c-0.266,0.229-0.574,0.407-0.924,0.534s-0.716,0.189-1.1,0.189h-0.761c-0.384,0-0.752-0.074-1.1-0.22
			c-0.349-0.146-0.657-0.347-0.92-0.599c-0.263-0.254-0.474-0.553-0.631-0.894c-0.157-0.341-0.236-0.7-0.236-1.089v-0.381
			l1.143-0.184v0.629c0,0.23,0.048,0.444,0.145,0.646c0.097,0.201,0.225,0.376,0.385,0.523c0.16,0.149,0.348,0.268,0.558,0.354
			c0.211,0.088,0.43,0.13,0.66,0.13h0.761c0.229,0,0.449-0.031,0.659-0.101c0.211-0.068,0.398-0.166,0.562-0.293
			c0.163-0.13,0.295-0.281,0.39-0.461c0.095-0.179,0.144-0.384,0.144-0.613c0-0.341-0.074-0.619-0.223-0.836
			c-0.149-0.214-0.346-0.396-0.59-0.542c-0.245-0.146-0.523-0.268-0.836-0.363c-0.312-0.098-0.632-0.191-0.961-0.289
			c-0.328-0.097-0.648-0.205-0.96-0.328c-0.312-0.125-0.592-0.289-0.835-0.49c-0.243-0.2-0.44-0.453-0.59-0.758
			c-0.148-0.305-0.224-0.682-0.224-1.134c0-0.385,0.075-0.733,0.224-1.054c0.149-0.318,0.351-0.594,0.604-0.823
			c0.254-0.229,0.55-0.407,0.888-0.534c0.338-0.127,0.698-0.189,1.083-0.189h0.669c0.384,0,0.747,0.072,1.087,0.22
			c0.342,0.146,0.638,0.345,0.893,0.599c0.256,0.254,0.454,0.553,0.599,0.894c0.146,0.341,0.219,0.701,0.219,1.089v0.035
			l-1.143,0.186v-0.289c0-0.229-0.043-0.442-0.13-0.645c-0.086-0.201-0.204-0.376-0.353-0.523c-0.149-0.15-0.323-0.27-0.525-0.354
			c-0.201-0.087-0.417-0.13-0.646-0.13h-0.669c-0.23,0-0.443,0.033-0.645,0.102c-0.202,0.068-0.376,0.164-0.525,0.294
			c-0.149,0.128-0.267,0.279-0.354,0.46c-0.087,0.18-0.13,0.383-0.13,0.612c0,0.328,0.074,0.597,0.224,0.806
			c0.148,0.207,0.345,0.381,0.59,0.523c0.244,0.143,0.522,0.262,0.835,0.357c0.312,0.097,0.631,0.194,0.958,0.297
			c0.327,0.104,0.643,0.221,0.958,0.351c0.313,0.13,0.591,0.298,0.835,0.502c0.245,0.201,0.441,0.458,0.59,0.765
			C52.768,47.614,52.831,47.995,52.831,48.45z"/>
		<path fill="#42210B" d="M58.489,50.864c-0.348,0-0.674-0.065-0.98-0.195c-0.306-0.13-0.572-0.308-0.799-0.539
			c-0.227-0.229-0.406-0.497-0.539-0.799c-0.133-0.304-0.2-0.628-0.2-0.976v-5.916h-1.709v-1.088h1.709v-2.283l1.143-0.188v2.473
			h2.415v1.086h-2.415v5.976c0,0.19,0.035,0.37,0.106,0.534c0.072,0.164,0.169,0.307,0.293,0.43c0.125,0.124,0.27,0.225,0.437,0.295
			c0.167,0.071,0.347,0.104,0.539,0.104h1.04v1.09h-1.04V50.864z"/>
		<path fill="#42210B" d="M67.764,49.341c-0.146,0.341-0.346,0.636-0.6,0.894c-0.254,0.255-0.551,0.451-0.893,0.599
			c-0.341,0.146-0.702,0.22-1.087,0.22h-0.762c-0.383,0-0.747-0.074-1.087-0.22c-0.341-0.146-0.638-0.347-0.893-0.599
			c-0.255-0.254-0.454-0.553-0.6-0.894s-0.218-0.702-0.218-1.089v-4.291c0-0.385,0.073-0.747,0.218-1.087
			c0.146-0.341,0.346-0.64,0.6-0.894c0.253-0.256,0.551-0.455,0.893-0.601c0.34-0.146,0.702-0.218,1.087-0.218h0.762
			c0.383,0,0.746,0.072,1.087,0.218s0.639,0.347,0.893,0.601s0.453,0.553,0.6,0.894c0.146,0.34,0.219,0.702,0.219,1.087v4.291
			C67.982,48.639,67.91,49,67.764,49.341z M66.84,43.896c0-0.229-0.043-0.443-0.131-0.646c-0.087-0.201-0.204-0.376-0.353-0.524
			c-0.149-0.149-0.324-0.267-0.525-0.354c-0.202-0.087-0.417-0.13-0.645-0.13h-0.761c-0.23,0-0.445,0.043-0.646,0.13
			c-0.201,0.088-0.375,0.204-0.525,0.354c-0.148,0.148-0.266,0.323-0.354,0.524c-0.087,0.201-0.13,0.417-0.13,0.646v4.422
			c0,0.229,0.043,0.443,0.13,0.646c0.087,0.201,0.205,0.376,0.354,0.524s0.324,0.267,0.525,0.354
			c0.201,0.088,0.417,0.131,0.646,0.131h0.761c0.23,0,0.443-0.043,0.645-0.131c0.201-0.087,0.375-0.203,0.525-0.354
			c0.149-0.148,0.266-0.323,0.353-0.524c0.088-0.2,0.131-0.417,0.131-0.646V43.896z"/>
		<path fill="#42210B" d="M80.309,50.864v-6.97c0-0.229-0.043-0.442-0.129-0.645c-0.088-0.201-0.205-0.376-0.354-0.523
			c-0.15-0.15-0.324-0.268-0.525-0.354c-0.203-0.087-0.418-0.13-0.645-0.13H78.09c-0.23,0-0.443,0.043-0.645,0.13
			c-0.201,0.088-0.379,0.204-0.529,0.354c-0.154,0.147-0.273,0.322-0.359,0.523c-0.088,0.201-0.131,0.417-0.131,0.645v6.97h-1.133
			v-6.97c0-0.229-0.043-0.442-0.131-0.645c-0.086-0.201-0.207-0.376-0.357-0.523c-0.152-0.15-0.33-0.268-0.531-0.354
			c-0.2-0.087-0.416-0.13-0.643-0.13h-0.566c-0.229,0-0.442,0.043-0.645,0.13c-0.203,0.088-0.379,0.204-0.527,0.354
			c-0.147,0.147-0.266,0.322-0.354,0.523c-0.086,0.201-0.129,0.417-0.129,0.645v6.97h-1.143v-9.513h0.381l0.623,0.965
			c0.26-0.354,0.586-0.633,0.979-0.84s0.822-0.312,1.287-0.312h0.094c0.539,0,1.023,0.133,1.457,0.399
			c0.438,0.267,0.77,0.621,1.006,1.059c0.115-0.217,0.264-0.415,0.436-0.596c0.173-0.178,0.365-0.332,0.574-0.459
			c0.211-0.127,0.441-0.227,0.688-0.297c0.252-0.071,0.506-0.106,0.771-0.106h0.095c0.383,0,0.747,0.071,1.088,0.218
			c0.342,0.146,0.639,0.348,0.894,0.602c0.254,0.255,0.452,0.552,0.6,0.893c0.146,0.34,0.219,0.702,0.219,1.087v6.903h-1.146v-0.003
			H80.309z"/>
		<path fill="#42210B" d="M89.871,49.341c-0.145,0.341-0.344,0.636-0.598,0.894c-0.254,0.255-0.553,0.451-0.894,0.599
			c-0.342,0.146-0.7,0.22-1.09,0.22h-0.761c-0.383,0-0.747-0.074-1.088-0.22c-0.34-0.146-0.637-0.347-0.893-0.599
			c-0.254-0.254-0.453-0.553-0.598-0.894c-0.148-0.341-0.219-0.702-0.219-1.089v-4.291c0-0.385,0.07-0.747,0.219-1.087
			c0.145-0.341,0.344-0.64,0.598-0.894c0.254-0.256,0.553-0.455,0.893-0.601c0.341-0.146,0.703-0.218,1.088-0.218h0.761
			c0.385,0,0.748,0.072,1.09,0.218c0.341,0.146,0.638,0.347,0.894,0.601c0.254,0.254,0.453,0.553,0.598,0.894
			c0.146,0.34,0.221,0.702,0.221,1.087v2.238h-5.213v2.117c0,0.23,0.045,0.444,0.131,0.646s0.205,0.376,0.354,0.523
			c0.148,0.149,0.322,0.268,0.523,0.354c0.203,0.089,0.418,0.13,0.646,0.13h0.762c0.229,0,0.443-0.041,0.645-0.13
			c0.201-0.087,0.375-0.204,0.525-0.354c0.148-0.147,0.266-0.322,0.354-0.523c0.086-0.201,0.132-0.417,0.132-0.646v-0.629
			l1.143,0.184v0.381C90.092,48.639,90.018,49,89.871,49.341z M88.949,43.896c0-0.229-0.045-0.443-0.131-0.646
			c-0.088-0.201-0.205-0.376-0.354-0.524c-0.149-0.149-0.323-0.267-0.524-0.354s-0.416-0.13-0.646-0.13h-0.762
			c-0.229,0-0.443,0.043-0.646,0.13c-0.201,0.088-0.375,0.204-0.523,0.354c-0.148,0.148-0.268,0.323-0.354,0.524
			c-0.086,0.201-0.131,0.417-0.131,0.646v1.412h4.07L88.949,43.896L88.949,43.896z"/>
		<path fill="#42210B" d="M95.172,42.439c-0.23,0-0.443,0.041-0.645,0.131c-0.201,0.087-0.377,0.203-0.525,0.353
			s-0.266,0.322-0.354,0.522c-0.086,0.203-0.129,0.419-0.129,0.647v6.771h-1.144v-9.513h0.379l0.623,0.965
			c0.263-0.354,0.586-0.633,0.979-0.84c0.395-0.207,0.824-0.312,1.289-0.312h0.668v1.274H95.172L95.172,42.439z"/>
		<path fill="#42210B" d="M104.379,48.45c0,0.383-0.078,0.733-0.232,1.053c-0.151,0.319-0.362,0.595-0.631,0.824
			c-0.266,0.229-0.574,0.407-0.924,0.534s-0.717,0.189-1.1,0.189h-0.762c-0.383,0-0.752-0.074-1.101-0.22
			c-0.351-0.146-0.655-0.347-0.92-0.599c-0.262-0.254-0.476-0.553-0.631-0.894c-0.158-0.341-0.236-0.7-0.236-1.089v-0.381
			l1.146-0.184v0.629c0,0.23,0.045,0.444,0.141,0.646c0.098,0.201,0.227,0.376,0.389,0.523c0.158,0.149,0.346,0.268,0.558,0.354
			c0.211,0.088,0.43,0.13,0.659,0.13h0.763c0.229,0,0.446-0.031,0.657-0.101c0.212-0.069,0.396-0.166,0.562-0.293
			c0.164-0.13,0.296-0.281,0.392-0.461c0.096-0.179,0.145-0.384,0.145-0.613c0-0.341-0.074-0.619-0.225-0.836
			c-0.148-0.214-0.344-0.396-0.588-0.542c-0.246-0.146-0.523-0.268-0.836-0.363c-0.313-0.098-0.633-0.191-0.961-0.289
			c-0.328-0.097-0.65-0.205-0.961-0.328c-0.313-0.125-0.593-0.289-0.834-0.49c-0.246-0.2-0.443-0.453-0.593-0.758
			c-0.147-0.305-0.223-0.682-0.223-1.134c0-0.385,0.073-0.733,0.223-1.054c0.147-0.318,0.351-0.594,0.604-0.823
			c0.254-0.229,0.551-0.407,0.889-0.534s0.697-0.189,1.084-0.189h0.668c0.385,0,0.746,0.072,1.088,0.22
			c0.34,0.146,0.637,0.345,0.891,0.599c0.258,0.254,0.455,0.553,0.603,0.894c0.146,0.341,0.219,0.701,0.219,1.089v0.035
			l-1.146,0.186v-0.289c0-0.229-0.041-0.442-0.131-0.645c-0.086-0.201-0.203-0.376-0.352-0.523c-0.148-0.15-0.322-0.27-0.525-0.354
			c-0.201-0.087-0.416-0.13-0.646-0.13h-0.679c-0.229,0-0.442,0.033-0.645,0.102c-0.201,0.069-0.375,0.164-0.525,0.294
			c-0.147,0.128-0.268,0.279-0.354,0.46c-0.086,0.18-0.129,0.383-0.129,0.612c0,0.328,0.074,0.597,0.223,0.806
			c0.15,0.207,0.346,0.381,0.59,0.523s0.523,0.262,0.836,0.357c0.313,0.097,0.629,0.194,0.957,0.297
			c0.326,0.104,0.646,0.221,0.957,0.351c0.314,0.13,0.593,0.298,0.836,0.502c0.246,0.201,0.441,0.458,0.591,0.765
			C104.307,47.614,104.379,47.995,104.379,48.45z"/>
	</g>
</g>
</svg>
