<?xml version="1.0" encoding="utf-8"?>
<!-- Generator: Adobe Illustrator 16.0.0, SVG Export Plug-In . SVG Version: 6.00 Build 0)  -->
<!DOCTYPE svg PUBLIC "-//W3C//DTD SVG 1.1//EN" "http://www.w3.org/Graphics/SVG/1.1/DTD/svg11.dtd">
<svg version="1.1" id="Layer_1" xmlns="http://www.w3.org/2000/svg" xmlns:xlink="http://www.w3.org/1999/xlink" x="0px" y="0px"
	 width="132.25px" height="71.328px" viewBox="0 0 132.25 71.328" enable-background="new 0 0 132.25 71.328" xml:space="preserve">
<path fill="#FFFFFF" d="M6.875,66.164c0,0,4.75-45.5,41.25-55l2.75-1c0,0-31,28.5-33,57.75l-10.5,0.25L6.875,66.164z"/>
<g>
	
		<linearGradient id="SVGID_1_" gradientUnits="userSpaceOnUse" x1="126" y1="-179.3359" x2="230.1277" y2="-179.3359" gradientTransform="matrix(1 0 0 -1 -126 -143.6719)">
		<stop  offset="0" style="stop-color:#C49A6C"/>
		<stop  offset="0.2202" style="stop-color:#C49A6C"/>
		<stop  offset="0.5263" style="stop-color:#A77C54"/>
		<stop  offset="0.814" style="stop-color:#936642"/>
		<stop  offset="1" style="stop-color:#8B5E3C"/>
	</linearGradient>
	<path fill="url(#SVGID_1_)" d="M129.533,66.328h-2.321c-0.789-32.452-26.907-58.607-59.344-59.455
		c1.141-0.622,1.923-1.816,1.923-3.207C69.791,1.642,68.15,0,66.125,0c-2.025,0-3.667,1.642-3.667,3.667
		c0,1.395,0.788,2.593,1.934,3.213C32.066,7.849,6.074,33.956,5.288,66.328h-2.57c-1.501,0-2.718,1.119-2.718,2.5
		s1.217,2.5,2.718,2.5h126.815c1.499,0,2.717-1.119,2.717-2.5S131.032,66.328,129.533,66.328z M14.875,66.333h-5.25
		c0,0,1-41.25,38-54C47.625,12.333,17.625,26.333,14.875,66.333z"/>
	<g>
		<g>
			<path fill="#42210B" d="M35.49,48.973c-0.169,0.396-0.404,0.743-0.7,1.039c-0.296,0.295-0.643,0.53-1.039,0.7
				c-0.396,0.171-0.821,0.254-1.273,0.254h-0.947c-0.452,0-0.878-0.083-1.277-0.254c-0.399-0.17-0.749-0.405-1.044-0.7
				c-0.296-0.296-0.531-0.643-0.7-1.039c-0.169-0.396-0.255-0.821-0.255-1.272v-7.148c0-0.452,0.086-0.877,0.255-1.273
				s0.404-0.743,0.7-1.038c0.296-0.296,0.645-0.531,1.044-0.701c0.399-0.17,0.825-0.254,1.277-0.254h0.947
				c0.452,0,0.877,0.086,1.273,0.254c0.396,0.17,0.743,0.405,1.039,0.701c0.296,0.295,0.53,0.642,0.7,1.038
				c0.17,0.396,0.255,0.821,0.255,1.273V47.7C35.746,48.151,35.661,48.577,35.49,48.973z M34.548,40.552
				c0-0.299-0.056-0.574-0.167-0.831c-0.111-0.257-0.263-0.481-0.455-0.673c-0.191-0.192-0.417-0.344-0.673-0.455
				c-0.257-0.109-0.534-0.165-0.83-0.165h-0.835c-0.298,0-0.573,0.056-0.83,0.165c-0.257,0.111-0.483,0.263-0.678,0.455
				c-0.195,0.191-0.349,0.416-0.459,0.673c-0.111,0.257-0.167,0.535-0.167,0.831V47.7c0,0.298,0.055,0.573,0.167,0.83
				c0.11,0.257,0.265,0.483,0.459,0.678c0.194,0.195,0.421,0.35,0.678,0.46c0.257,0.109,0.534,0.165,0.83,0.165h0.835
				c0.298,0,0.573-0.056,0.83-0.165c0.256-0.11,0.481-0.265,0.673-0.46c0.192-0.194,0.344-0.421,0.455-0.678
				c0.111-0.257,0.167-0.535,0.167-0.83V40.552z"/>
		</g>
		<g>
			<path fill="#42210B" d="M44.356,49.26c-0.145,0.34-0.346,0.636-0.6,0.893c-0.254,0.254-0.552,0.451-0.892,0.597
				s-0.702,0.22-1.087,0.22h-0.285c-0.428,0-0.824-0.086-1.188-0.26c-0.364-0.173-0.678-0.414-0.938-0.724v4.604h-1.143V41.275h0.38
				l0.623,0.964c0.26-0.353,0.585-0.631,0.979-0.838c0.393-0.208,0.822-0.312,1.287-0.312h0.287c0.383,0,0.746,0.073,1.087,0.219
				c0.34,0.146,0.636,0.347,0.892,0.6c0.255,0.254,0.455,0.551,0.601,0.892c0.146,0.341,0.217,0.702,0.217,1.086v4.289
				C44.574,48.557,44.502,48.917,44.356,49.26z M43.432,43.821c0-0.23-0.043-0.446-0.13-0.647c-0.088-0.201-0.205-0.376-0.354-0.525
				c-0.148-0.148-0.321-0.267-0.522-0.354c-0.202-0.086-0.418-0.13-0.646-0.13h-0.761c-0.229,0-0.444,0.044-0.645,0.13
				c-0.201,0.087-0.375,0.205-0.524,0.354c-0.149,0.149-0.267,0.324-0.354,0.525c-0.087,0.201-0.13,0.417-0.13,0.647v4.419
				c0,0.229,0.042,0.442,0.13,0.644c0.087,0.201,0.204,0.376,0.354,0.524c0.148,0.149,0.323,0.266,0.524,0.354
				c0.201,0.087,0.417,0.131,0.645,0.131h0.761c0.229,0,0.444-0.044,0.646-0.131c0.201-0.088,0.374-0.204,0.522-0.354
				c0.149-0.148,0.266-0.323,0.354-0.524c0.087-0.201,0.13-0.417,0.13-0.644V43.821z"/>
		</g>
		<g>
			<path fill="#42210B" d="M52.989,49.26c-0.146,0.34-0.346,0.636-0.6,0.893c-0.253,0.254-0.551,0.451-0.892,0.597
				c-0.34,0.146-0.702,0.22-1.087,0.22h-0.76c-0.383,0-0.746-0.074-1.086-0.22c-0.341-0.146-0.637-0.345-0.893-0.597
				c-0.254-0.254-0.453-0.553-0.599-0.893c-0.146-0.343-0.218-0.703-0.218-1.088v-4.289c0-0.384,0.073-0.746,0.218-1.086
				c0.146-0.341,0.346-0.638,0.599-0.892c0.254-0.257,0.552-0.455,0.893-0.601c0.34-0.145,0.702-0.218,1.086-0.218h0.76
				c0.384,0,0.747,0.073,1.087,0.218c0.341,0.146,0.638,0.347,0.892,0.601c0.255,0.252,0.453,0.551,0.6,0.892
				c0.145,0.34,0.218,0.702,0.218,1.086v2.237h-5.208v2.116c0,0.23,0.043,0.444,0.13,0.646c0.087,0.201,0.205,0.376,0.354,0.524
				c0.149,0.148,0.323,0.267,0.524,0.353c0.201,0.089,0.417,0.13,0.645,0.13h0.761c0.229,0,0.443-0.041,0.645-0.13
				c0.201-0.086,0.375-0.204,0.524-0.353c0.148-0.148,0.266-0.323,0.354-0.524c0.086-0.201,0.13-0.416,0.13-0.646v-0.629
				l1.142,0.184v0.381C53.207,48.557,53.134,48.917,52.989,49.26z M52.065,43.821c0-0.23-0.043-0.446-0.13-0.647
				c-0.087-0.201-0.205-0.376-0.354-0.525c-0.149-0.148-0.324-0.267-0.524-0.354c-0.201-0.086-0.417-0.13-0.645-0.13h-0.761
				c-0.229,0-0.443,0.044-0.645,0.13c-0.201,0.087-0.375,0.205-0.524,0.354c-0.148,0.149-0.266,0.324-0.354,0.525
				c-0.087,0.201-0.13,0.417-0.13,0.647v1.411h4.066V43.821z"/>
		</g>
		<g>
			<path fill="#42210B" d="M58.285,42.36c-0.23,0-0.443,0.043-0.645,0.13c-0.201,0.087-0.375,0.204-0.524,0.353
				c-0.149,0.15-0.266,0.325-0.354,0.526s-0.13,0.416-0.13,0.646v6.767H55.49v-9.507h0.38l0.623,0.964
				c0.26-0.353,0.586-0.631,0.979-0.838c0.393-0.208,0.822-0.312,1.287-0.312h0.669v1.273h-1.143V42.36z"/>
		</g>
		<g>
			<path fill="#42210B" d="M66.918,50.782l-0.631-0.949c-0.259,0.341-0.584,0.616-0.974,0.823c-0.39,0.208-0.818,0.31-1.282,0.31
				h-0.289c-0.383,0-0.746-0.071-1.087-0.217c-0.34-0.146-0.637-0.347-0.892-0.6c-0.254-0.254-0.453-0.551-0.599-0.892
				c-0.146-0.341-0.218-0.702-0.218-1.086V48.08c0-0.384,0.073-0.747,0.218-1.087c0.146-0.341,0.346-0.637,0.599-0.892
				c0.254-0.255,0.552-0.453,0.892-0.599c0.341-0.147,0.702-0.219,1.087-0.219h2.413v-1.467c0-0.23-0.042-0.445-0.129-0.646
				c-0.087-0.201-0.205-0.376-0.354-0.525c-0.149-0.149-0.324-0.267-0.525-0.354c-0.201-0.086-0.417-0.13-0.645-0.13h-0.668
				c-0.229,0-0.443,0.044-0.645,0.13c-0.201,0.087-0.376,0.204-0.524,0.354c-0.149,0.149-0.266,0.324-0.354,0.525
				s-0.13,0.416-0.13,0.646v0.344l-1.14-0.184v-0.095c0-0.384,0.073-0.746,0.218-1.086c0.146-0.341,0.346-0.638,0.599-0.892
				c0.253-0.257,0.551-0.455,0.892-0.601c0.341-0.145,0.702-0.218,1.087-0.218h0.669c0.383,0,0.746,0.073,1.086,0.218
				c0.341,0.146,0.638,0.347,0.892,0.601c0.255,0.252,0.454,0.551,0.6,0.892c0.146,0.34,0.217,0.702,0.217,1.086v6.899H66.918z
				 M66.158,46.178h-2.414c-0.23,0-0.443,0.043-0.645,0.13c-0.201,0.088-0.375,0.205-0.524,0.357
				c-0.148,0.153-0.266,0.328-0.354,0.528c-0.087,0.201-0.13,0.418-0.13,0.647v0.399c0,0.229,0.043,0.442,0.13,0.644
				c0.087,0.201,0.205,0.376,0.354,0.524c0.149,0.149,0.323,0.266,0.524,0.354c0.201,0.087,0.417,0.131,0.645,0.131h0.76
				c0.23,0,0.444-0.044,0.645-0.131c0.201-0.088,0.375-0.204,0.525-0.354c0.148-0.148,0.266-0.323,0.354-0.524
				c0.086-0.201,0.13-0.417,0.13-0.644V46.178z"/>
		</g>
		<g>
			<path fill="#42210B" d="M73.045,50.782c-0.347,0-0.675-0.065-0.979-0.195c-0.306-0.13-0.572-0.31-0.8-0.538
				c-0.226-0.23-0.405-0.497-0.538-0.801c-0.133-0.301-0.198-0.626-0.198-0.973V42.36h-1.708v-1.086h1.708V38.99l1.142-0.186v2.471
				h2.414v1.088h-2.414v5.97c0,0.191,0.034,0.368,0.105,0.533c0.071,0.166,0.169,0.308,0.294,0.432
				c0.124,0.122,0.27,0.222,0.437,0.293c0.165,0.071,0.347,0.106,0.538,0.106h1.04v1.086L73.045,50.782L73.045,50.782z"/>
		</g>
		<g>
			<path fill="#42210B" d="M76.471,38.99v-1.522h1.327v1.522H76.471z M76.563,50.782v-9.507h1.142v9.507H76.563z"/>
		</g>
		<g>
			<path fill="#42210B" d="M86.503,49.26c-0.147,0.34-0.347,0.636-0.601,0.893c-0.254,0.254-0.551,0.451-0.891,0.597
				c-0.341,0.146-0.703,0.22-1.087,0.22h-0.761c-0.384,0-0.746-0.074-1.086-0.22c-0.341-0.146-0.638-0.345-0.894-0.597
				c-0.255-0.254-0.453-0.553-0.599-0.893c-0.146-0.343-0.22-0.703-0.22-1.088v-4.289c0-0.384,0.074-0.746,0.22-1.086
				c0.146-0.341,0.346-0.638,0.599-0.892c0.253-0.257,0.553-0.455,0.894-0.601c0.34-0.145,0.7-0.218,1.086-0.218h0.761
				c0.383,0,0.746,0.073,1.087,0.218c0.34,0.146,0.637,0.347,0.891,0.601c0.256,0.252,0.453,0.551,0.601,0.892
				c0.146,0.34,0.218,0.702,0.218,1.086v4.289C86.72,48.557,86.646,48.917,86.503,49.26z M85.577,43.821
				c0-0.23-0.041-0.446-0.13-0.647c-0.086-0.201-0.204-0.376-0.353-0.525c-0.148-0.148-0.323-0.267-0.524-0.354
				c-0.201-0.086-0.416-0.13-0.646-0.13h-0.76c-0.23,0-0.443,0.044-0.645,0.13c-0.201,0.087-0.375,0.205-0.524,0.354
				c-0.148,0.149-0.267,0.324-0.354,0.525c-0.088,0.201-0.13,0.417-0.13,0.647v4.419c0,0.229,0.042,0.442,0.13,0.644
				c0.087,0.201,0.205,0.376,0.354,0.524c0.149,0.149,0.323,0.266,0.524,0.354c0.201,0.087,0.417,0.131,0.645,0.131h0.76
				c0.23,0,0.444-0.044,0.646-0.131c0.201-0.088,0.376-0.204,0.524-0.354c0.148-0.148,0.267-0.323,0.353-0.524
				c0.089-0.201,0.13-0.417,0.13-0.644V43.821z"/>
		</g>
		<g>
			<path fill="#42210B" d="M94.211,50.782v-6.965c0-0.229-0.043-0.445-0.13-0.646s-0.204-0.374-0.353-0.522
				s-0.323-0.267-0.524-0.354c-0.201-0.088-0.417-0.13-0.646-0.13h-0.762c-0.229,0-0.442,0.042-0.644,0.13
				c-0.201,0.087-0.376,0.205-0.524,0.354c-0.149,0.148-0.266,0.321-0.354,0.522c-0.086,0.201-0.13,0.418-0.13,0.646v6.965h-1.142
				v-9.507h0.381l0.622,0.964c0.26-0.353,0.588-0.631,0.98-0.838c0.394-0.208,0.822-0.312,1.286-0.312h0.288
				c0.383,0,0.747,0.073,1.087,0.219c0.341,0.146,0.638,0.347,0.892,0.6c0.255,0.254,0.453,0.551,0.601,0.892
				c0.146,0.341,0.216,0.702,0.216,1.086v6.899h-1.145V50.782z"/>
		</g>
		<g>
			<path fill="#42210B" d="M104.172,48.37c0,0.382-0.077,0.733-0.232,1.052c-0.151,0.318-0.363,0.593-0.629,0.823
				c-0.267,0.229-0.574,0.407-0.924,0.533c-0.35,0.127-0.717,0.19-1.099,0.19h-0.762c-0.384,0-0.752-0.074-1.1-0.22
				c-0.349-0.146-0.654-0.345-0.918-0.597c-0.263-0.254-0.475-0.553-0.631-0.893c-0.158-0.343-0.237-0.703-0.237-1.088v-0.381
				l1.144-0.184v0.629c0,0.23,0.047,0.444,0.143,0.646c0.098,0.201,0.226,0.376,0.387,0.524c0.159,0.148,0.347,0.267,0.558,0.353
				c0.21,0.089,0.43,0.13,0.658,0.13h0.762c0.229,0,0.447-0.032,0.659-0.101c0.21-0.067,0.396-0.165,0.56-0.292
				c0.164-0.13,0.294-0.281,0.391-0.461c0.096-0.178,0.144-0.384,0.144-0.613c0-0.34-0.074-0.618-0.225-0.835
				c-0.148-0.215-0.343-0.396-0.588-0.543c-0.244-0.146-0.522-0.267-0.835-0.362c-0.313-0.098-0.632-0.191-0.96-0.289
				c-0.327-0.096-0.649-0.206-0.96-0.328c-0.313-0.124-0.592-0.288-0.834-0.489c-0.245-0.201-0.443-0.453-0.592-0.758
				c-0.148-0.304-0.223-0.681-0.223-1.133c0-0.384,0.074-0.734,0.223-1.055c0.148-0.319,0.35-0.592,0.604-0.822
				s0.551-0.406,0.889-0.533c0.337-0.127,0.696-0.19,1.083-0.19h0.668c0.384,0,0.746,0.072,1.086,0.218
				c0.341,0.146,0.638,0.347,0.892,0.601c0.257,0.252,0.455,0.551,0.601,0.892c0.146,0.34,0.218,0.702,0.218,1.086v0.037
				l-1.144,0.186v-0.288c0-0.23-0.042-0.445-0.13-0.646c-0.087-0.201-0.204-0.376-0.353-0.526c-0.148-0.148-0.322-0.266-0.523-0.353
				c-0.202-0.087-0.417-0.13-0.646-0.13h-0.668c-0.229,0-0.442,0.034-0.644,0.103c-0.201,0.067-0.376,0.164-0.526,0.292
				c-0.148,0.129-0.267,0.28-0.353,0.46c-0.087,0.179-0.13,0.385-0.13,0.612c0,0.328,0.074,0.598,0.223,0.805
				c0.149,0.207,0.347,0.381,0.591,0.522c0.244,0.145,0.522,0.264,0.836,0.359c0.311,0.096,0.629,0.195,0.956,0.297
				c0.324,0.104,0.644,0.22,0.956,0.35c0.313,0.13,0.591,0.297,0.835,0.502c0.245,0.2,0.439,0.457,0.59,0.764
				C104.108,47.531,104.172,47.918,104.172,48.37z"/>
		</g>
	</g>
</g>
</svg>
