<?xml version="1.0" encoding="utf-8"?>
<!-- Generator: Adobe Illustrator 16.0.0, SVG Export Plug-In . SVG Version: 6.00 Build 0)  -->
<!DOCTYPE svg PUBLIC "-//W3C//DTD SVG 1.1//EN" "http://www.w3.org/Graphics/SVG/1.1/DTD/svg11.dtd">
<svg version="1.1" id="Layer_1" xmlns="http://www.w3.org/2000/svg" xmlns:xlink="http://www.w3.org/1999/xlink" x="0px" y="0px"
	 width="360px" height="78.182px" viewBox="0 0 360 78.182" enable-background="new 0 0 360 78.182" xml:space="preserve">
<g opacity="0.5">
	<g>
		<path fill="#333132" d="M25.121,15.215c0.151-0.192,0.178-0.448,0.072-0.667c-0.106-0.22-0.325-0.356-0.569-0.356h-2.359
			c0.006-0.439-0.21-0.859-0.573-1.11l0.187-0.474c0.063-0.162-0.016-0.344-0.178-0.408c-0.162-0.064-0.345,0.016-0.408,0.178
			l-0.189,0.481c-0.583-0.07-1.165,0.257-1.39,0.83l-0.197,0.504h-8.355c-0.244,0-0.462,0.136-0.568,0.356
			c-0.107,0.219-0.08,0.475,0.071,0.667l6.914,8.8v4.926c0,1.123-0.913,2.035-2.035,2.035h-1.007c-0.174,0-0.315,0.141-0.315,0.313
			c0,0.174,0.141,0.315,0.315,0.315h6.713c0.173,0,0.314-0.142,0.314-0.315c0-0.173-0.141-0.313-0.314-0.313h-1.007
			c-1.122,0-2.035-0.914-2.035-2.035v-4.926L25.121,15.215z M19.457,18.178c0.328,0,0.475,0.063,0.66,0.143
			c0.211,0.09,0.452,0.193,0.908,0.193c0.402,0,0.636-0.08,0.831-0.161l-3.962,5.043l-3.962-5.043
			c0.194,0.081,0.428,0.161,0.829,0.161c0.456,0,0.696-0.103,0.907-0.193c0.186-0.08,0.332-0.143,0.659-0.143
			c0.327,0,0.473,0.063,0.659,0.143c0.211,0.09,0.451,0.193,0.907,0.193s0.696-0.103,0.907-0.193
			C18.983,18.241,19.13,18.178,19.457,18.178z M20.3,13.918c0.14-0.355,0.542-0.53,0.898-0.391c0.276,0.108,0.446,0.38,0.438,0.666
			h-1.443L20.3,13.918z M11.162,14.822l13.464-0.001l0.001,0.005l-2.141,2.725c-0.388,0.015-0.606,0.108-0.801,0.191
			c-0.186,0.08-0.333,0.143-0.66,0.143c-0.327,0-0.474-0.063-0.66-0.143c-0.125-0.054-0.26-0.111-0.444-0.149l0.64-1.628
			c0.063-0.162-0.016-0.345-0.178-0.408c-0.162-0.063-0.345,0.016-0.408,0.178l-0.715,1.822c-0.332,0.025-0.531,0.109-0.709,0.186
			c-0.186,0.08-0.333,0.143-0.659,0.143c-0.327,0-0.474-0.063-0.659-0.143c-0.211-0.091-0.451-0.193-0.907-0.193
			s-0.695,0.103-0.907,0.193c-0.186,0.08-0.332,0.143-0.659,0.143c-0.327,0-0.473-0.063-0.659-0.143
			c-0.194-0.083-0.413-0.177-0.801-0.191l-2.142-2.725L11.162,14.822z M18.525,30.977H17.26c0.257-0.218,0.472-0.481,0.632-0.781
			C18.053,30.494,18.269,30.759,18.525,30.977z"/>
	</g>
	<path fill="#333132" d="M18.655,19.091L17.6,21.775c-0.063,0.162,0.016,0.346,0.178,0.408l0.115,0.022
		c0.125,0,0.244-0.076,0.293-0.2l1.055-2.686c0.064-0.162-0.016-0.344-0.178-0.408S18.719,18.929,18.655,19.091z"/>
	<g>
		<path fill="#333132" d="M188.579,24.045c-0.069-0.096-0.181-0.152-0.3-0.152h-0.456l0.008-0.136c0.04-0.634,0.09-1.422-0.25-2.157
			c-0.354-0.771-1.054-1.313-2.123-1.649c0.592-1.67,0.001-3.167-0.632-4.158c-1.004-1.571-2.646-2.715-3.715-2.938
			c-0.164-1.358-1.322-2.415-2.724-2.415c-1.514,0-2.746,1.231-2.746,2.745c0,0.582,0.188,1.145,0.523,1.608
			c-0.488,0.034-0.978,0.056-1.445,0.077c-0.93,0.042-1.809,0.081-2.457,0.206c-0.179,0.035-0.559,0.108-0.864,0.3l-0.054,0.024
			c-0.738,0.408-1.412,1.602-1.638,2.904c-0.163,0.939-0.059,1.753,0.29,2.341c-0.5,0.416-1.415,1.242-1.516,3.25h-0.777
			c-0.119,0-0.23,0.056-0.3,0.151c-0.07,0.097-0.09,0.218-0.054,0.331l2.506,7.878c0.207,0.649,0.803,1.086,1.485,1.086h0.713h0.001
			h0.002h1.58h0.001l0,0h8.706h0.001h1.58h0.002h0.001h0.714c0.682,0,1.277-0.437,1.484-1.086l2.507-7.878
			C188.669,24.264,188.648,24.141,188.579,24.045z M176.384,13.184c0-1.104,0.898-2.003,2.003-2.003
			c1.088,0,1.975,0.872,2.002,1.954c-0.313,1.006-1.712,1.396-3.3,1.576C176.64,14.328,176.384,13.78,176.384,13.184z
			 M172.403,15.804c0.595-0.115,1.448-0.153,2.35-0.193c2.45-0.11,5.468-0.246,6.256-2.021c0.313,0.075,0.783,0.279,1.347,0.679
			c0.729,0.519,1.385,1.202,1.846,1.923c0.547,0.858,1.063,2.153,0.535,3.571c-0.775-0.171-1.868-0.351-3.108-0.555
			c-2.085-0.344-4.68-0.772-6.688-1.321c-0.977-0.267-3.247-0.973-3.247-1.761C171.693,16.04,171.878,15.904,172.403,15.804z
			 M170.438,18.429c0.11-0.635,0.359-1.271,0.657-1.738c0.82,1.543,5.051,2.364,10.412,3.248c1.4,0.231,2.61,0.431,3.362,0.616
			c2.382,0.586,2.296,1.952,2.221,3.156l-0.011,0.182h-9.902c-0.282-0.113-1.45-0.584-2.727-1.188
			c-1.904-0.9-3.175-1.678-3.677-2.247C170.409,20.044,170.287,19.305,170.438,18.429z M173.963,32.598l-1.086-7.963h1.99
			l0.362,7.963H173.963z M172.353,32.598l-1.81-7.963h1.585l1.086,7.963H172.353z M175.61,24.635h1.495h0.002h0.001h0.512v7.963
			h-1.648L175.61,24.635z M170.477,21.208c1.035,0.935,3.234,1.999,4.788,2.685h-6.042
			C169.314,22.225,170.016,21.591,170.477,21.208z M170.564,32.03l-2.353-7.396h1.57l1.81,7.963h-0.25
			C170.984,32.598,170.672,32.37,170.564,32.03z M185.42,32.03c-0.107,0.34-0.421,0.567-0.777,0.567h-0.25l1.246-5.481
			c0.045-0.2-0.08-0.398-0.279-0.444c-0.199-0.045-0.398,0.08-0.444,0.279l-1.283,5.646h-0.86l0.535-3.932
			c0.027-0.203-0.113-0.391-0.316-0.417c-0.203-0.028-0.391,0.114-0.418,0.317l-0.551,4.031h-1.267l0.108-2.382
			c0.01-0.205-0.149-0.378-0.354-0.387c-0.205-0.007-0.378,0.149-0.388,0.354l-0.109,2.416h-1.649v-7.964h2.01l-0.18,3.966
			c-0.01,0.205,0.149,0.377,0.354,0.387h0.018c0.197,0,0.361-0.155,0.371-0.354l0.182-3.999h1.99l-0.32,2.35
			c-0.027,0.203,0.113,0.39,0.316,0.418l0.051,0.002c0.184,0,0.343-0.135,0.367-0.32l0.334-2.449h1.586l-0.166,0.734
			c-0.047,0.199,0.08,0.398,0.279,0.443l0.082,0.01c0.17,0,0.322-0.117,0.361-0.289l0.204-0.898h1.569L185.42,32.03z"/>
	</g>
	<path fill="#333132" d="M178.388,12.022c-0.205,0-0.371,0.166-0.371,0.371s0.166,0.371,0.371,0.371c0.231,0,0.42,0.189,0.42,0.42
		c0,0.205,0.166,0.371,0.371,0.371c0.205,0,0.371-0.166,0.371-0.371C179.55,12.543,179.028,12.022,178.388,12.022z"/>
	<path fill="#333132" d="M179.123,21.069c0.274,0.042,0.538,0.082,0.79,0.122l0.058,0.004c0.18,0,0.338-0.131,0.366-0.314
		c0.031-0.203-0.106-0.392-0.31-0.424c-0.253-0.039-0.518-0.08-0.793-0.122c-0.202-0.03-0.392,0.108-0.422,0.311
		S178.92,21.039,179.123,21.069z"/>
	<path fill="#333132" d="M181.492,21.445c3.941,0.663,3.99,0.958,4.048,1.297c0.03,0.181,0.188,0.31,0.364,0.31l0.063-0.005
		c0.202-0.033,0.34-0.225,0.305-0.427c-0.073-0.448-0.263-0.784-0.969-1.073c-0.621-0.254-1.725-0.503-3.688-0.833
		c-0.202-0.034-0.393,0.103-0.428,0.305C181.152,21.22,181.29,21.411,181.492,21.445z"/>
	<path fill="#333132" d="M181.341,15.467c0.168,0.117,0.327,0.242,0.474,0.37l0.244,0.092c0.104,0,0.205-0.043,0.279-0.126
		c0.135-0.154,0.119-0.389-0.035-0.522c-0.166-0.146-0.347-0.288-0.537-0.42c-0.168-0.117-0.398-0.076-0.517,0.092
		S181.173,15.35,181.341,15.467z"/>
	<path fill="#333132" d="M183.16,18.329c0,0.205,0.167,0.371,0.371,0.371c0.205,0,0.371-0.166,0.371-0.371
		c0-0.198-0.038-0.908-0.534-1.769c-0.103-0.177-0.329-0.238-0.507-0.136c-0.178,0.102-0.238,0.329-0.137,0.507
		C183.148,17.665,183.16,18.263,183.16,18.329z"/>
	<path fill="#333132" d="M142.949,17.141c0-1.617-1.229-2.952-2.801-3.122c0.02-0.145,0.031-0.292,0.031-0.439
		c0-1.732-1.409-3.141-3.141-3.141s-3.141,1.409-3.141,3.141c0,0.147,0.01,0.294,0.031,0.439c-1.572,0.17-2.801,1.505-2.801,3.122
		c0,0.97,0.45,1.879,1.2,2.469l0.005,0.019l4.353,13.454c0.05,0.153,0.192,0.257,0.354,0.257c0.161,0,0.303-0.104,0.353-0.257
		l4.353-13.454l0.005-0.018C142.505,19.018,142.949,18.116,142.949,17.141z M142.207,17.141c0,0.812-0.403,1.557-1.08,2.003h-2.637
		c-0.677-0.446-1.081-1.191-1.081-2.003c0-1.323,1.076-2.398,2.399-2.398C141.131,14.743,142.207,15.818,142.207,17.141z
		 M137.387,19.145h-0.698c0.134-0.161,0.25-0.335,0.349-0.519C137.136,18.81,137.253,18.983,137.387,19.145z M137.038,11.181
		c1.323,0,2.398,1.076,2.398,2.399c0,0.151-0.015,0.301-0.042,0.448c-1.021,0.135-1.889,0.762-2.356,1.634
		c-0.468-0.873-1.336-1.499-2.357-1.634c-0.027-0.147-0.042-0.297-0.042-0.448C134.639,12.257,135.715,11.181,137.038,11.181z
		 M131.869,17.141c0-1.323,1.076-2.398,2.399-2.398c1.323,0,2.399,1.076,2.399,2.398c0,0.813-0.404,1.557-1.081,2.003h-2.638
		C132.278,18.702,131.869,17.95,131.869,17.141z M139.068,19.887l-0.189,0.076c-0.19,0.076-0.283,0.292-0.207,0.482
		c0.058,0.145,0.197,0.233,0.345,0.233l0.137-0.027l1.699-0.68l-0.732,2.263l-0.847,0.34c-0.19,0.076-0.283,0.292-0.207,0.482
		c0.058,0.145,0.197,0.232,0.345,0.232l0.138-0.027l0.274-0.109l-0.732,2.264l-1.425,0.57c-0.19,0.076-0.283,0.291-0.207,0.481
		c0.058,0.146,0.197,0.233,0.344,0.233l0.138-0.027l0.852-0.341l-0.732,2.265l-1.813,0.726l-0.565-1.746l0.898-0.359
		c0.19-0.075,0.283-0.292,0.207-0.481c-0.076-0.19-0.292-0.283-0.482-0.207l-0.852,0.341l-0.564-1.744l1.098-0.438
		c0.19-0.076,0.283-0.293,0.207-0.482c-0.076-0.189-0.292-0.283-0.482-0.207l-1.052,0.42l-0.564-1.745l1.434-0.573
		c0.19-0.076,0.283-0.293,0.207-0.482c-0.076-0.19-0.292-0.283-0.482-0.207l-1.387,0.555l-0.673-2.08h5.871V19.887z M137.038,31.764
		l-0.561-1.731l1.287-0.515L137.038,31.764z"/>
	<path fill="#333132" d="M134.268,16.325c0.45,0,0.816,0.366,0.816,0.816c0,0.205,0.166,0.371,0.371,0.371s0.371-0.166,0.371-0.371
		c0-0.859-0.699-1.558-1.558-1.558c-0.205,0-0.371,0.167-0.371,0.371C133.897,16.159,134.063,16.325,134.268,16.325z"/>
	<path fill="#333132" d="M137.038,12.764c0.45,0,0.816,0.366,0.816,0.816c0,0.205,0.166,0.371,0.371,0.371s0.371-0.167,0.371-0.371
		c0-0.859-0.699-1.558-1.558-1.558c-0.205,0-0.371,0.166-0.371,0.371S136.833,12.764,137.038,12.764z"/>
	<path fill="#333132" d="M139.437,15.954c0,0.205,0.166,0.371,0.371,0.371c0.45,0,0.816,0.366,0.816,0.816
		c0,0.205,0.166,0.371,0.371,0.371s0.371-0.166,0.371-0.371c0-0.859-0.699-1.558-1.558-1.558
		C139.603,15.583,139.437,15.75,139.437,15.954z"/>
	<path fill="#333132" d="M136.76,21.581l0.138-0.026l0.822-0.33c0.19-0.076,0.283-0.292,0.207-0.482
		c-0.076-0.19-0.292-0.283-0.482-0.207l-0.823,0.329c-0.19,0.076-0.283,0.292-0.207,0.482
		C136.473,21.492,136.612,21.581,136.76,21.581z"/>
	<path fill="#333132" d="M137.048,23.464c-0.19,0.076-0.283,0.292-0.207,0.481c0.059,0.146,0.198,0.234,0.345,0.234l0.138-0.027
		l0.841-0.336c0.19-0.076,0.283-0.293,0.207-0.482s-0.292-0.283-0.482-0.206L137.048,23.464z"/>
	<path fill="#333132" d="M348.368,29.037h-0.421v-6.355c0-1.078-0.876-1.955-1.954-1.955h-0.42v-6.355
		c0-1.078-0.877-1.954-1.954-1.954H332.54c-1.077,0-1.954,0.876-1.954,1.954v6.355h-0.421c-1.077,0-1.953,0.876-1.953,1.955v6.355
		h-0.421c-0.641,0-1.162,0.521-1.162,1.163c0,0.641,0.521,1.161,1.162,1.161h20.577c0.641,0,1.162-0.521,1.162-1.161
		C349.53,29.559,349.009,29.037,348.368,29.037z M332.54,13.16h11.079c0.668,0,1.212,0.543,1.212,1.212
		c0,0.45-0.366,0.816-0.816,0.816c-0.448,0-0.814-0.366-0.814-0.816c0-0.205-0.166-0.371-0.371-0.371s-0.371,0.166-0.371,0.371
		c0,0.45-0.366,0.816-0.816,0.816c-0.448,0-0.814-0.366-0.814-0.816c0-0.205-0.167-0.371-0.371-0.371
		c-0.205,0-0.371,0.166-0.371,0.371c0,0.45-0.366,0.816-0.816,0.816c-0.449,0-0.815-0.366-0.815-0.816
		c0-0.205-0.166-0.371-0.371-0.371c-0.204,0-0.37,0.166-0.37,0.371c0,0.45-0.366,0.816-0.816,0.816
		c-0.449,0-0.815-0.366-0.815-0.816c0-0.205-0.166-0.371-0.371-0.371c-0.204,0-0.371,0.166-0.371,0.371
		c0,0.45-0.365,0.816-0.814,0.816c-0.45,0-0.816-0.366-0.816-0.816c0-0.205-0.166-0.371-0.371-0.371s-0.371,0.166-0.371,0.371
		c0,0.45-0.366,0.816-0.816,0.816c-0.448,0-0.814-0.366-0.814-0.816C331.328,13.703,331.871,13.16,332.54,13.16z M331.328,19.887
		h8.334c0.205,0,0.371-0.167,0.371-0.371c0-0.205-0.166-0.371-0.371-0.371h-8.334v-3.447c0.237,0.146,0.517,0.232,0.814,0.232
		c0.477,0,0.901-0.214,1.188-0.551c0.286,0.336,0.712,0.551,1.188,0.551s0.9-0.214,1.188-0.551c0.286,0.336,0.712,0.551,1.188,0.551
		c0.477,0,0.901-0.214,1.188-0.551c0.286,0.336,0.712,0.551,1.188,0.551c0.477,0,0.901-0.214,1.188-0.551
		c0.286,0.336,0.712,0.551,1.187,0.551c0.477,0,0.901-0.214,1.188-0.551c0.286,0.336,0.712,0.551,1.187,0.551
		c0.301,0,0.579-0.085,0.816-0.232v3.447h-1.212c-0.204,0-0.371,0.166-0.371,0.371s0.167,0.371,0.371,0.371h1.212v0.84h-13.503
		v-0.84H331.328z M330.165,21.469h15.828c0.669,0,1.212,0.543,1.212,1.213c0,0.449-0.366,0.815-0.815,0.815
		s-0.815-0.366-0.815-0.815c0-0.205-0.166-0.371-0.371-0.371s-0.371,0.166-0.371,0.371c0,0.449-0.366,0.815-0.816,0.815
		c-0.448,0-0.814-0.366-0.814-0.815c0-0.205-0.166-0.371-0.371-0.371s-0.371,0.166-0.371,0.371c0,0.449-0.366,0.815-0.816,0.815
		c-0.448,0-0.814-0.366-0.814-0.815c0-0.205-0.167-0.371-0.371-0.371c-0.205,0-0.371,0.166-0.371,0.371
		c0,0.449-0.366,0.815-0.816,0.815c-0.449,0-0.815-0.366-0.815-0.815c0-0.205-0.166-0.371-0.371-0.371
		c-0.204,0-0.37,0.166-0.37,0.371c0,0.449-0.366,0.815-0.816,0.815c-0.449,0-0.815-0.366-0.815-0.815
		c0-0.205-0.166-0.371-0.371-0.371c-0.204,0-0.371,0.166-0.371,0.371c0,0.449-0.365,0.815-0.815,0.815
		c-0.449,0-0.815-0.366-0.815-0.815c0-0.205-0.166-0.371-0.371-0.371s-0.371,0.166-0.371,0.371c0,0.449-0.366,0.815-0.815,0.815
		s-0.815-0.366-0.815-0.815c0-0.205-0.166-0.371-0.371-0.371s-0.371,0.166-0.371,0.371c0,0.449-0.366,0.815-0.815,0.815
		s-0.815-0.366-0.815-0.815C328.954,22.014,329.497,21.469,330.165,21.469z M328.954,28.195h13.082c0.205,0,0.371-0.165,0.371-0.37
		s-0.166-0.371-0.371-0.371h-13.082v-3.446c0.237,0.146,0.517,0.231,0.814,0.231c0.477,0,0.901-0.214,1.188-0.552
		c0.286,0.336,0.712,0.552,1.187,0.552c0.477,0,0.901-0.214,1.188-0.552c0.286,0.336,0.712,0.552,1.188,0.552s0.9-0.214,1.188-0.552
		c0.286,0.336,0.712,0.552,1.188,0.552c0.477,0,0.901-0.214,1.188-0.552c0.286,0.336,0.712,0.552,1.188,0.552
		c0.477,0,0.901-0.214,1.188-0.552c0.286,0.336,0.712,0.552,1.187,0.552c0.477,0,0.901-0.214,1.188-0.552
		c0.286,0.336,0.712,0.552,1.187,0.552c0.477,0,0.901-0.214,1.188-0.552c0.286,0.336,0.712,0.552,1.188,0.552
		c0.3,0,0.578-0.085,0.815-0.231v3.446H346c-0.205,0-0.371,0.167-0.371,0.371c0,0.205,0.166,0.37,0.371,0.37h1.211v0.842H328.96
		v-0.842H328.954z M348.368,30.62h-20.577c-0.231,0-0.42-0.188-0.42-0.42c0-0.232,0.188-0.42,0.42-0.42h20.577
		c0.23,0,0.42,0.188,0.42,0.42C348.788,30.432,348.6,30.62,348.368,30.62z"/>
	<path fill="#333132" d="M344.41,27.454h-0.791c-0.205,0-0.371,0.167-0.371,0.371c0,0.205,0.166,0.37,0.371,0.37h0.791
		c0.205,0,0.371-0.165,0.371-0.37C344.781,27.621,344.615,27.454,344.41,27.454z"/>
	<path fill="#333132" d="M342.036,19.145h-0.791c-0.205,0-0.371,0.166-0.371,0.371s0.166,0.371,0.371,0.371h0.791
		c0.205,0,0.371-0.167,0.371-0.371C342.407,19.311,342.241,19.145,342.036,19.145z"/>
	<path fill="#333132" d="M336.893,16.77c-0.204,0-0.37,0.167-0.37,0.371v0.396c0,0.205,0.165,0.371,0.37,0.371
		s0.371-0.167,0.371-0.371v-0.396C337.264,16.937,337.098,16.77,336.893,16.77z"/>
	<path fill="#333132" d="M339.267,16.77c-0.204,0-0.37,0.167-0.37,0.371v0.396c0,0.205,0.165,0.371,0.37,0.371
		s0.371-0.167,0.371-0.371v-0.396C339.638,16.937,339.472,16.77,339.267,16.77z"/>
	<path fill="#333132" d="M341.641,17.908c0.205,0,0.371-0.167,0.371-0.371v-0.396c0-0.205-0.166-0.371-0.371-0.371
		c-0.204,0-0.371,0.167-0.371,0.371v0.396C341.27,17.742,341.438,17.908,341.641,17.908z"/>
	<path fill="#333132" d="M344.015,17.908c0.205,0,0.371-0.167,0.371-0.371v-0.396c0-0.205-0.166-0.371-0.371-0.371
		c-0.204,0-0.37,0.167-0.37,0.371v0.396C343.645,17.742,343.811,17.908,344.015,17.908z"/>
	<path fill="#333132" d="M332.144,16.77c-0.203,0-0.369,0.167-0.369,0.371v0.396c0,0.205,0.166,0.371,0.369,0.371
		c0.205,0,0.371-0.167,0.371-0.371v-0.396C332.515,16.937,332.349,16.77,332.144,16.77z"/>
	<path fill="#333132" d="M334.519,16.77c-0.204,0-0.37,0.167-0.37,0.371v0.396c0,0.205,0.166,0.371,0.37,0.371
		s0.371-0.167,0.371-0.371v-0.396C334.89,16.937,334.723,16.77,334.519,16.77z"/>
	<path fill="#333132" d="M336.893,25.08c-0.204,0-0.37,0.166-0.37,0.371v0.396c0,0.204,0.165,0.37,0.37,0.37s0.371-0.166,0.371-0.37
		v-0.396C337.264,25.246,337.098,25.08,336.893,25.08z"/>
	<path fill="#333132" d="M339.267,25.08c-0.204,0-0.37,0.166-0.37,0.371v0.396c0,0.204,0.165,0.37,0.37,0.37s0.371-0.166,0.371-0.37
		v-0.396C339.638,25.246,339.472,25.08,339.267,25.08z"/>
	<path fill="#333132" d="M341.641,25.08c-0.204,0-0.371,0.166-0.371,0.371v0.396c0,0.204,0.167,0.37,0.371,0.37
		c0.205,0,0.371-0.166,0.371-0.37v-0.396C342.012,25.246,341.846,25.08,341.641,25.08z"/>
	<path fill="#333132" d="M344.015,26.218c0.205,0,0.371-0.166,0.371-0.37v-0.396c0-0.205-0.166-0.371-0.371-0.371
		c-0.204,0-0.37,0.166-0.37,0.371v0.396C343.645,26.052,343.811,26.218,344.015,26.218z"/>
	<path fill="#333132" d="M346.39,26.218c0.204,0,0.371-0.166,0.371-0.37v-0.396c0-0.205-0.167-0.371-0.371-0.371
		c-0.205,0-0.371,0.166-0.371,0.371v0.396C346.019,26.052,346.185,26.218,346.39,26.218z"/>
	<path fill="#333132" d="M329.77,25.08c-0.203,0-0.37,0.166-0.37,0.371v0.396c0,0.204,0.167,0.37,0.37,0.37
		c0.205,0,0.371-0.166,0.371-0.37v-0.396C330.141,25.246,329.975,25.08,329.77,25.08z"/>
	<path fill="#333132" d="M332.144,25.08c-0.203,0-0.369,0.166-0.369,0.371v0.396c0,0.204,0.166,0.37,0.369,0.37
		c0.205,0,0.371-0.166,0.371-0.37v-0.396C332.515,25.246,332.349,25.08,332.144,25.08z"/>
	<path fill="#333132" d="M334.519,25.08c-0.204,0-0.37,0.166-0.37,0.371v0.396c0,0.204,0.166,0.37,0.37,0.37s0.371-0.166,0.371-0.37
		v-0.396C334.89,25.246,334.723,25.08,334.519,25.08z"/>
	<g>
		<path fill="#333132" d="M267.709,21.592l-1.795-1.323l0.243-0.73c0.114-0.343-0.022-0.713-0.333-0.9l-1.34-0.804
			c-0.184-0.109-0.404-0.138-0.608-0.079l-0.106,0.042c-0.168-0.22-0.395-0.597-0.52-1.136c-0.077-0.333-0.286-0.609-0.604-0.797
			c-0.375-0.223-0.842-0.292-1.248-0.269c0.004-0.437-0.235-0.846-0.644-1.049l-0.03-0.015c-0.016-0.178-0.053-0.434-0.143-0.709
			c-0.227-0.691-0.669-1.17-1.281-1.385c-0.602-0.211-1.009-0.165-1.335-0.128c-0.424,0.048-0.729,0.083-1.491-0.453
			c-0.674-0.473-1.314-0.453-1.83-0.437c-0.308,0.01-0.574,0.018-0.82-0.063l-0.006-0.001l-1.146-0.845
			c-0.111-0.083-0.263-0.095-0.387-0.032c-0.125,0.063-0.204,0.191-0.204,0.331v20.181c0,1.295,1.054,2.35,2.351,2.35h11.078
			c1.297,0,2.35-1.054,2.35-2.35v-9.101C267.859,21.771,267.805,21.662,267.709,21.592z M265.441,19.275l0.013,0.029l-0.168,0.502
			l-1.374-1.012l0.156-0.313l0.015-0.013l0.021,0.002L265.441,19.275z M260.424,15.211c0.178,0.089,0.268,0.285,0.221,0.478
			l-0.147,0.588l-2.009-1.48l0.154-0.155c0.129-0.128,0.323-0.16,0.485-0.079L260.424,15.211z M262.268,16.503
			c0.145,0.085,0.229,0.192,0.26,0.327c0.156,0.669,0.441,1.144,0.662,1.432l-2.047-1.509l0.099-0.392
			C261.552,16.305,261.98,16.333,262.268,16.503z M256.048,12.465c0.994,0.697,1.507,0.639,2.002,0.583
			c0.304-0.035,0.565-0.064,1.007,0.091c0.387,0.136,0.66,0.437,0.814,0.896l0.025,0.083l-0.438-0.219
			c-0.447-0.224-0.986-0.137-1.342,0.218l-0.234,0.234l-2.977-2.194C255.297,12.153,255.654,12.19,256.048,12.465z M267.118,30.991
			c0,0.887-0.722,1.606-1.608,1.606h-11.078c-0.888,0-1.607-0.721-1.607-1.606V11.545l6.904,5.087l5.916,5.916
			c0.071,0.072,0.168,0.108,0.263,0.108s0.188-0.036,0.262-0.108c0.146-0.146,0.146-0.38,0-0.524l-2.453-2.454l3.403,2.507
			L267.118,30.991L267.118,30.991z"/>
	</g>
	<path fill="#333132" d="M254.297,13.318c-0.145-0.145-0.38-0.145-0.523,0c-0.146,0.145-0.146,0.379,0,0.524l11.871,11.871
		c0.071,0.072,0.168,0.109,0.263,0.109s0.188-0.037,0.262-0.109c0.146-0.145,0.146-0.38,0-0.523L254.297,13.318z"/>
	<path fill="#333132" d="M254.297,16.484c-0.145-0.145-0.38-0.145-0.523,0c-0.145,0.145-0.146,0.379,0,0.524l11.871,11.871
		c0.071,0.072,0.168,0.109,0.263,0.109s0.188-0.037,0.262-0.109c0.146-0.145,0.146-0.38,0-0.523L254.297,16.484z"/>
	<path fill="#333132" d="M254.297,19.649c-0.145-0.145-0.38-0.145-0.523,0c-0.145,0.145-0.146,0.379,0,0.524l11.476,11.476
		c0.071,0.072,0.167,0.109,0.262,0.109c0.097,0,0.19-0.037,0.263-0.109c0.146-0.145,0.146-0.379,0-0.523L254.297,19.649z"/>
	<path fill="#333132" d="M254.297,22.814c-0.145-0.145-0.38-0.145-0.523,0c-0.146,0.146-0.146,0.381,0,0.525l8.31,8.311
		c0.071,0.072,0.168,0.108,0.263,0.108c0.096,0,0.189-0.036,0.262-0.108c0.146-0.146,0.146-0.381,0-0.524L254.297,22.814z"/>
	<path fill="#333132" d="M254.297,25.98c-0.145-0.146-0.38-0.146-0.523,0c-0.146,0.145-0.146,0.379,0,0.524l5.145,5.144
		c0.072,0.072,0.167,0.109,0.262,0.109c0.096,0,0.19-0.037,0.264-0.109c0.145-0.145,0.145-0.379,0-0.523L254.297,25.98z"/>
	<path fill="#333132" d="M254.297,29.146c-0.145-0.146-0.38-0.146-0.523,0c-0.146,0.145-0.146,0.379,0,0.523l1.979,1.979
		c0.072,0.072,0.168,0.109,0.264,0.109c0.094,0,0.188-0.037,0.262-0.109c0.146-0.145,0.146-0.379,0-0.523L254.297,29.146z"/>
	<path fill="#333132" d="M227.768,20.955c-0.205,0-0.371-0.166-0.371-0.371c0-2.397-0.906-4.206-2.693-5.376
		c-1.602-1.048-3.855-1.58-6.704-1.58s-5.104,0.531-6.705,1.58c-1.787,1.17-2.692,2.979-2.692,5.376
		c0,0.205-0.166,0.371-0.371,0.371s-0.371-0.166-0.371-0.371c0-4.964,3.602-7.698,10.141-7.698s10.141,2.734,10.141,7.698
		C228.139,20.789,227.973,20.955,227.768,20.955z"/>
	<circle fill="#333132" cx="211.716" cy="17.302" r="0.371"/>
	<circle fill="#333132" cx="224.279" cy="17.302" r="0.371"/>
	<circle fill="#333132" cx="222.796" cy="28.282" r="0.371"/>
	<circle fill="#333132" cx="213.2" cy="18.34" r="0.371"/>
	<path fill="#333132" d="M224.799,30.898h-13.604c-1.84,0-3.338-1.498-3.338-3.34c0-0.205,0.166-0.371,0.371-0.371
		s0.371,0.168,0.371,0.371c0,1.433,1.164,2.598,2.596,2.598h13.604c1.432,0,2.598-1.165,2.598-2.598
		c0-0.205,0.166-0.371,0.371-0.371s0.371,0.168,0.371,0.371C228.139,29.4,226.641,30.898,224.799,30.898z"/>
	<path fill="#333132" d="M227.768,24.664h-19.539c-1.021,0-1.854-0.832-1.854-1.854v-0.742c0-1.023,0.832-1.855,1.854-1.855h19.539
		c1.021,0,1.854,0.832,1.854,1.855v0.742C229.621,23.832,228.789,24.664,227.768,24.664z M208.229,20.955
		c-0.612,0-1.111,0.499-1.111,1.113v0.742c0,0.613,0.499,1.112,1.111,1.112h19.539c0.613,0,1.112-0.499,1.112-1.112v-0.742
		c0-0.614-0.499-1.113-1.112-1.113H208.229z"/>
	<path fill="#333132" d="M225.5,27.137c-1.029,0-1.57-0.285-2.049-0.537c-0.46-0.242-0.855-0.451-1.703-0.451
		c-0.846,0-1.242,0.209-1.702,0.451c-0.478,0.252-1.019,0.537-2.049,0.537c-1.029,0-1.57-0.285-2.048-0.537
		c-0.461-0.242-0.856-0.451-1.702-0.451c-0.847,0-1.243,0.209-1.703,0.451c-0.478,0.252-1.019,0.537-2.048,0.537
		s-1.571-0.285-2.049-0.537c-0.459-0.242-0.856-0.451-1.702-0.451c-0.205,0-0.371-0.166-0.371-0.371s0.166-0.371,0.371-0.371
		c1.028,0,1.569,0.285,2.049,0.537c0.459,0.242,0.856,0.453,1.702,0.453s1.242-0.209,1.702-0.453
		c0.478-0.252,1.019-0.537,2.049-0.537c1.028,0,1.569,0.285,2.048,0.537c0.46,0.242,0.855,0.453,1.702,0.453
		s1.243-0.209,1.703-0.453c0.478-0.252,1.019-0.537,2.048-0.537s1.57,0.285,2.049,0.537c0.46,0.242,0.855,0.453,1.703,0.453
		c0.846,0,1.242-0.209,1.702-0.453c0.478-0.252,1.019-0.537,2.049-0.537c0.205,0,0.37,0.166,0.37,0.371s-0.165,0.371-0.37,0.371
		c-0.847,0-1.243,0.209-1.703,0.451C227.07,26.852,226.529,27.137,225.5,27.137z"/>
	<g>
		<path fill="#333132" d="M305.834,17.537c0-0.584-0.436-1.07-0.997-1.15l-1.022-1.022c-0.369-0.369-0.859-0.572-1.381-0.572h-3.326
			v-1.497c0-0.576,0.41-1.075,0.975-1.188l4.663-0.933c0.2-0.04,0.331-0.236,0.291-0.437c-0.04-0.201-0.236-0.331-0.437-0.291
			l-4.664,0.933c-0.91,0.182-1.57,0.988-1.57,1.916v1.497h-3.326c-0.521,0-1.012,0.203-1.381,0.572l-1.022,1.023
			c-0.563,0.081-0.997,0.566-0.997,1.15c0,0.518,0.342,0.958,0.811,1.107l0.73,12.416c0.028,0.5,0.373,0.912,0.834,1.047v0.072
			c0,0.641,0.521,1.161,1.161,1.161h7.123c0.642,0,1.162-0.521,1.162-1.161v-0.072c0.46-0.135,0.806-0.547,0.835-1.047l0.73-12.416
			C305.493,18.495,305.834,18.055,305.834,17.537z M295.038,15.534h7.396c0.323,0,0.627,0.126,0.856,0.355l0.485,0.486h-10.08
			l0.486-0.486C294.41,15.66,294.715,15.534,295.038,15.534z M302.297,32.6h-7.123c-0.23,0-0.42-0.189-0.42-0.42v-0.025h7.963v0.025
			C302.717,32.41,302.527,32.6,302.297,32.6z M303.553,31.016c-0.013,0.223-0.197,0.396-0.419,0.396h-8.796
			c-0.223,0-0.406-0.174-0.42-0.396L293.193,18.7h11.084L303.553,31.016z M304.671,17.958H292.8c-0.231,0-0.42-0.188-0.42-0.42
			s0.188-0.42,0.42-0.42h11.871c0.231,0,0.421,0.188,0.421,0.42S304.902,17.958,304.671,17.958z"/>
	</g>
	<path fill="#333132" d="M303.016,19.541c-0.207-0.013-0.382,0.144-0.394,0.349l-0.047,0.791c-0.013,0.205,0.146,0.38,0.349,0.393
		h0.021c0.195,0,0.359-0.152,0.371-0.35l0.047-0.791C303.375,19.729,303.219,19.553,303.016,19.541z"/>
	<path fill="#333132" d="M302.875,21.915c-0.205-0.013-0.381,0.144-0.393,0.349l-0.279,4.75c-0.012,0.204,0.145,0.379,0.349,0.392
		l0.022,0.001c0.193,0,0.357-0.152,0.369-0.35l0.279-4.75C303.234,22.104,303.079,21.927,302.875,21.915z"/>
	<path fill="#333132" d="M50.757,22.605c0-3.958,3.221-7.179,7.179-7.179c0.186,0,0.335-0.15,0.335-0.335
		c0-0.186-0.15-0.335-0.335-0.335c-4.329,0-7.85,3.521-7.85,7.851c0,1.783,0.583,3.463,1.685,4.858
		c0.066,0.084,0.165,0.128,0.264,0.128l0.208-0.072c0.146-0.114,0.17-0.326,0.056-0.471C51.29,25.773,50.757,24.236,50.757,22.605z"
		/>
	<path fill="#333132" d="M65.451,22.271c-0.186,0-0.335,0.149-0.335,0.334c0,3.959-3.221,7.18-7.179,7.18
		c-1.704,0-3.355-0.607-4.65-1.709c-0.141-0.12-0.353-0.104-0.473,0.038c-0.12,0.141-0.103,0.353,0.038,0.473
		c1.417,1.205,3.223,1.869,5.085,1.869c4.329,0,7.85-3.521,7.85-7.851C65.786,22.421,65.636,22.271,65.451,22.271z"/>
	<path fill="#333132" d="M66.586,19.161l-8.096,2.891l2.891-8.095c0.063-0.175-0.028-0.367-0.203-0.429
		c-1.041-0.373-2.132-0.561-3.242-0.561c-2.575,0-4.995,1.003-6.816,2.823c-1.82,1.821-2.823,4.241-2.823,6.815
		c0,2.576,1.003,4.996,2.823,6.816c1.821,1.821,4.241,2.823,6.816,2.823s4.995-1.002,6.816-2.823c1.82-1.82,2.823-4.24,2.823-6.816
		c0-1.109-0.188-2.2-0.561-3.241C66.952,19.189,66.76,19.099,66.586,19.161z M57.936,31.574c-4.945,0-8.968-4.023-8.968-8.969
		c0-4.944,4.023-8.967,8.968-8.967c0.92,0,1.827,0.139,2.699,0.415l-0.376,1.053c-0.272-0.084-0.549-0.153-0.828-0.207
		c-0.182-0.036-0.357,0.084-0.393,0.266c-0.035,0.182,0.084,0.358,0.266,0.393c0.245,0.047,0.489,0.108,0.729,0.182l-2.412,6.754
		c-0.043,0.122-0.013,0.258,0.079,0.35c0.092,0.092,0.228,0.122,0.35,0.079l6.754-2.412c0.073,0.239,0.134,0.483,0.182,0.729
		c0.031,0.16,0.171,0.271,0.329,0.271l0.064-0.006c0.182-0.035,0.301-0.211,0.266-0.393c-0.054-0.278-0.124-0.556-0.208-0.827
		l1.053-0.376c0.275,0.872,0.415,1.777,0.415,2.699C66.904,27.551,62.881,31.574,57.936,31.574z"/>
	<path fill="#333132" d="M65.325,14.972c-0.134-0.128-0.346-0.124-0.474,0.01c-0.128,0.134-0.124,0.346,0.01,0.474
		c0.187,0.179,0.365,0.369,0.531,0.566c0.066,0.079,0.162,0.12,0.257,0.12l0.216-0.079c0.142-0.119,0.16-0.331,0.041-0.473
		C65.725,15.375,65.529,15.167,65.325,14.972z"/>
	<path fill="#333132" d="M68.982,17.396c-0.476-1.332-1.258-2.567-2.263-3.572c-1.005-1.005-2.241-1.788-3.573-2.264l-0.256,0.013
		l-0.172,0.19l-3.129,8.762c-0.044,0.122-0.013,0.258,0.079,0.35l0.237,0.099l0.113-0.02l7.07-2.525l0,0l1.691-0.604l0.19-0.172
		L68.982,17.396z M67.17,17.687c-0.136-0.335-0.296-0.662-0.477-0.975c-0.093-0.16-0.298-0.215-0.458-0.122
		c-0.16,0.093-0.215,0.298-0.122,0.458c0.161,0.277,0.303,0.567,0.425,0.864l-6.08,2.172l2.171-6.08
		c0.42,0.173,0.824,0.386,1.205,0.636c0.155,0.102,0.363,0.059,0.464-0.097c0.102-0.155,0.059-0.363-0.097-0.464
		c-0.425-0.279-0.876-0.515-1.347-0.707l0.379-1.062c1.119,0.449,2.154,1.132,3.01,1.987c0.856,0.856,1.538,1.891,1.987,3.01
		L67.17,17.687z"/>
	<path fill="#333132" d="M54.91,22.417c0.093-0.16,0.039-0.365-0.122-0.458c-0.16-0.093-0.365-0.038-0.458,0.122
		c-0.068,0.118-0.194,0.19-0.329,0.19c-0.21,0-0.38-0.17-0.38-0.381c0-0.209,0.17-0.38,0.38-0.38c0.185,0,0.335-0.15,0.335-0.335
		c0-0.186-0.15-0.335-0.335-0.335c-0.58,0-1.051,0.471-1.051,1.052c0,0.58,0.47,1.049,1.05,1.049
		C54.374,22.941,54.723,22.74,54.91,22.417z"/>
	<path fill="#333132" d="M64.091,17.306c-0.16-0.093-0.366-0.038-0.458,0.123c-0.068,0.117-0.194,0.19-0.33,0.19
		c-0.209,0-0.38-0.17-0.38-0.38c0-0.209,0.17-0.38,0.38-0.38c0.186,0,0.335-0.15,0.335-0.335c0-0.186-0.15-0.335-0.335-0.335
		c-0.579,0-1.051,0.471-1.051,1.051c0,0.58,0.472,1.051,1.051,1.051c0.374,0,0.723-0.201,0.91-0.525
		C64.306,17.604,64.252,17.399,64.091,17.306z"/>
	<path fill="#333132" d="M60.895,27.24c0.374,0,0.723-0.201,0.91-0.525c0.093-0.16,0.038-0.365-0.122-0.458
		c-0.161-0.093-0.366-0.038-0.458,0.123c-0.068,0.117-0.194,0.19-0.33,0.19c-0.209,0-0.38-0.17-0.38-0.381
		c0-0.209,0.171-0.379,0.38-0.379c0.186,0,0.335-0.15,0.335-0.336s-0.15-0.334-0.335-0.334c-0.58,0-1.051,0.471-1.051,1.051
		C59.843,26.77,60.315,27.24,60.895,27.24z"/>
	<path fill="#333132" d="M57.192,26.018c-0.068,0.116-0.194,0.189-0.33,0.189c-0.209,0-0.38-0.17-0.38-0.38s0.17-0.38,0.38-0.38
		c0.186,0,0.335-0.15,0.335-0.336s-0.15-0.334-0.335-0.334c-0.58,0-1.051,0.472-1.051,1.051s0.472,1.051,1.051,1.051
		c0.374,0,0.723-0.201,0.91-0.525c0.093-0.16,0.038-0.364-0.122-0.457C57.49,25.801,57.285,25.855,57.192,26.018z"/>
	<path fill="#333132" d="M56.505,17.932c0.185,0,0.335-0.15,0.335-0.335s-0.15-0.335-0.335-0.335c-0.58,0-1.051,0.472-1.051,1.051
		s0.472,1.051,1.051,1.051c0.374,0,0.722-0.201,0.91-0.525c0.093-0.16,0.038-0.365-0.123-0.458c-0.16-0.093-0.365-0.038-0.458,0.122
		c-0.068,0.117-0.194,0.19-0.329,0.19c-0.21,0-0.38-0.171-0.38-0.38S56.295,17.932,56.505,17.932z"/>
	<path fill="#333132" d="M55.194,20.222c-0.131,0.131-0.131,0.344,0,0.475l0.716,0.716l0.237,0.098l0.237-0.098
		c0.131-0.131,0.131-0.344,0-0.475l-0.715-0.716C55.538,20.091,55.325,20.091,55.194,20.222z"/>
	<path fill="#333132" d="M53.521,19.623c0.131-0.131,0.131-0.344,0-0.475s-0.343-0.131-0.475,0l-0.357,0.358
		c-0.131,0.131-0.131,0.343,0,0.474l0.237,0.098l0.237-0.098L53.521,19.623z"/>
	<path fill="#333132" d="M53.405,24.874l-0.358,0.358c-0.131,0.131-0.131,0.344,0,0.475l0.237,0.098l0.237-0.098l0.358-0.357
		c0.131-0.132,0.131-0.344,0-0.476C53.748,24.743,53.536,24.743,53.405,24.874z"/>
	<path fill="#333132" d="M59.01,24.377h0.715c0.186,0,0.335-0.15,0.335-0.335s-0.15-0.335-0.335-0.335H59.01
		c-0.186,0-0.335,0.15-0.335,0.335C58.674,24.227,58.824,24.377,59.01,24.377z"/>
	<path fill="#333132" d="M63.303,23.299l0.237-0.098l0.358-0.358c0.131-0.131,0.131-0.343,0-0.475s-0.343-0.132-0.474,0
		l-0.358,0.358c-0.131,0.131-0.131,0.344,0,0.475L63.303,23.299z"/>
	<path fill="#333132" d="M62.708,25.71l0.237,0.099l0.237-0.099c0.131-0.131,0.131-0.343,0-0.474l-0.357-0.358
		c-0.131-0.131-0.344-0.131-0.475,0s-0.131,0.343,0,0.476L62.708,25.71z"/>
	<path fill="#333132" d="M58.294,28.667l0.237-0.099l0.357-0.357c0.131-0.131,0.131-0.344,0-0.475c-0.131-0.131-0.343-0.131-0.474,0
		l-0.358,0.357c-0.131,0.131-0.131,0.344,0,0.475L58.294,28.667z"/>
	<path fill="#333132" d="M56.146,23.662c0.186,0,0.336-0.15,0.336-0.335c0-0.187-0.15-0.335-0.336-0.335h-0.357
		c-0.185,0-0.335,0.15-0.335,0.335s0.15,0.335,0.335,0.335H56.146z"/>
	<path fill="#333132" d="M63.424,15.687l0.237,0.098l0.237-0.098c0.131-0.131,0.131-0.343,0-0.475l-0.358-0.358
		c-0.131-0.131-0.343-0.131-0.474,0s-0.131,0.344,0,0.475L63.424,15.687z"/>
	<path fill="#333132" d="M65.093,16.549c-0.186,0-0.335,0.15-0.335,0.335v0.711c0,0.187,0.15,0.335,0.335,0.335
		c0.185,0,0.335-0.15,0.335-0.335v-0.711C65.428,16.7,65.278,16.549,65.093,16.549z"/>
	<path fill="#333132" d="M55.194,27.857l0.237,0.098l0.237-0.098c0.131-0.131,0.131-0.344,0-0.476l-0.358-0.358
		c-0.131-0.131-0.343-0.131-0.475,0c-0.131,0.132-0.131,0.344,0,0.476L55.194,27.857z"/>
	<path fill="#333132" d="M61.514,23.305c0.186,0,0.335-0.15,0.335-0.336v-0.359c0-0.186-0.15-0.334-0.335-0.334
		s-0.335,0.149-0.335,0.334v0.358C61.179,23.152,61.329,23.305,61.514,23.305z"/>
	<path fill="#333132" d="M52.806,23.089l-0.358-0.358c-0.131-0.131-0.343-0.131-0.474,0c-0.131,0.131-0.131,0.344,0,0.475
		l0.357,0.357l0.237,0.099l0.237-0.099C52.937,23.432,52.937,23.22,52.806,23.089z"/>
	<path fill="#333132" d="M57.958,16.527v0.357c0,0.186,0.15,0.335,0.335,0.335s0.335-0.15,0.335-0.335v-0.357
		c0-0.186-0.15-0.335-0.335-0.335S57.958,16.342,57.958,16.527z"/>
	<path fill="#333132" d="M106.076,13.793c-2.163-2.163-5.038-3.354-8.097-3.354s-5.934,1.191-8.097,3.354
		c-2.162,2.163-3.354,5.038-3.354,8.098c0,3.059,1.191,5.934,3.354,8.096c2.163,2.164,5.039,3.354,8.097,3.354
		s5.934-1.19,8.097-3.354c2.163-2.162,3.354-5.037,3.354-8.096C109.43,18.831,108.239,15.956,106.076,13.793z M105.552,29.462
		c-2.023,2.022-4.712,3.136-7.572,3.136s-5.55-1.113-7.572-3.136s-3.137-4.712-3.137-7.571c0-2.86,1.114-5.551,3.137-7.573
		c2.023-2.022,4.712-3.136,7.572-3.136s5.549,1.114,7.572,3.136c2.022,2.022,3.136,4.712,3.136,7.573
		C108.688,24.75,107.574,27.439,105.552,29.462z"/>
	<path fill="#333132" d="M103.958,18.781c-0.187,0.084-0.27,0.304-0.185,0.491c0.373,0.824,0.563,1.706,0.563,2.619
		c0,2.295-1.245,4.403-3.215,5.525v-13.44c0-0.147-0.087-0.281-0.222-0.34c-0.135-0.059-0.292-0.033-0.4,0.067
		c-0.366,0.338-0.679,0.77-0.946,1.264c-0.513-0.116-1.042-0.176-1.572-0.176c-0.141,0-0.281,0.005-0.42,0.013v-0.829
		c0-0.205-0.166-0.371-0.371-0.371s-0.371,0.167-0.371,0.371v0.912C96.531,14.935,96.25,15,95.976,15.08v-1.104
		c0-0.205-0.166-0.371-0.371-0.371s-0.371,0.167-0.371,0.371v1.369c-0.291,0.123-0.571,0.264-0.841,0.422v-1.791
		c0-0.205-0.167-0.371-0.371-0.371c-0.205,0-0.371,0.167-0.371,0.371v2.292c-1.683,1.299-2.77,3.335-2.77,5.623
		c0,1.892,0.735,3.67,2.071,5.01c0.072,0.072,0.167,0.109,0.263,0.109c0.095,0,0.189-0.035,0.262-0.107
		c0.145-0.146,0.146-0.381,0.001-0.525c-1.195-1.2-1.854-2.793-1.854-4.486c0-1.834,0.781-3.49,2.028-4.65v1.485
		c0,0.511,0.332,0.946,0.792,1.102v9.187c0,0.642,0.521,1.163,1.163,1.163c0.641,0,1.162-0.521,1.162-1.163v-0.128
		c0.399,0.068,0.805,0.104,1.212,0.104c0.272,0,0.546-0.016,0.816-0.047v0.07c0,0.642,0.521,1.163,1.163,1.163
		s1.162-0.521,1.162-1.163v-0.756c2.412-1.191,3.957-3.664,3.957-6.365c0-1.02-0.211-2.003-0.628-2.925
		C104.364,18.779,104.145,18.696,103.958,18.781z M96.817,15.641v1.921h-0.841v-1.704C96.249,15.767,96.53,15.694,96.817,15.641z
		 M95.234,16.158v1.404h-0.841v-0.917C94.66,16.462,94.941,16.299,95.234,16.158z M96.026,29.012c0,0.232-0.189,0.42-0.42,0.42
		c-0.232,0-0.421-0.188-0.421-0.42v-9.497c0-0.205-0.166-0.371-0.371-0.371c-0.232,0-0.42-0.188-0.42-0.42v-0.42h1.211h0.001h0.001
		h1.21v0.42c0,0.232-0.188,0.42-0.42,0.42c-0.205,0-0.371,0.166-0.371,0.371V29.012z M97.979,28.246
		c-0.408,0-0.814-0.04-1.212-0.116v-8.304c0.46-0.155,0.792-0.59,0.792-1.102v-3.176c0.139-0.009,0.279-0.015,0.42-0.015
		c0.419,0,0.836,0.042,1.243,0.123c-1.331,3.164-1.225,7.97-1.218,8.222c0.005,0.201,0.169,0.361,0.371,0.361h0.421v3.954
		C98.526,28.229,98.252,28.246,97.979,28.246z M100.378,29.012c0,0.232-0.188,0.42-0.42,0.42s-0.42-0.188-0.42-0.42v-5.144
		c0-0.205-0.166-0.371-0.371-0.371h-0.424c0-0.644,0.027-2.068,0.223-3.639c0.267-2.138,0.75-3.784,1.413-4.841L100.378,29.012
		L100.378,29.012z"/>
	<path fill="#333132" d="M102.092,17.043c0.263,0.224,0.51,0.471,0.734,0.734c0.074,0.086,0.178,0.131,0.283,0.131l0.24-0.088
		c0.156-0.133,0.175-0.367,0.042-0.523c-0.25-0.294-0.525-0.569-0.819-0.819c-0.156-0.132-0.391-0.113-0.523,0.043
		C101.917,16.676,101.936,16.911,102.092,17.043z"/>
	<path fill="#333132" d="M93.557,29.875c-1.449-0.805-2.653-1.986-3.482-3.421c-0.103-0.179-0.33-0.238-0.507-0.136
		c-0.177,0.103-0.238,0.33-0.135,0.507c0.897,1.551,2.199,2.83,3.765,3.698l0.18,0.047c0.13,0,0.257-0.068,0.324-0.19
		C93.801,30.2,93.736,29.975,93.557,29.875z"/>
	<path fill="#333132" d="M102.542,13.985c0.26,0.15,0.516,0.315,0.76,0.491l0.216,0.07c0.115,0,0.229-0.054,0.301-0.154
		c0.12-0.167,0.082-0.398-0.084-0.518c-0.264-0.19-0.54-0.368-0.821-0.531c-0.177-0.103-0.404-0.042-0.507,0.135
		C102.304,13.655,102.365,13.882,102.542,13.985z"/>
	<path fill="#333132" d="M107.633,19.834c-0.394-1.859-1.315-3.558-2.664-4.911c-0.145-0.145-0.38-0.145-0.525,0
		s-0.146,0.379,0,0.524c1.248,1.252,2.099,2.822,2.464,4.541c0.037,0.175,0.19,0.294,0.362,0.294l0.077-0.008
		C107.547,20.231,107.675,20.035,107.633,19.834z"/>
</g>
<g opacity="0.5">
	<g>
		<path fill="#333132" d="M185.71,48.882c0.151-0.191,0.178-0.447,0.072-0.667c-0.106-0.22-0.325-0.356-0.569-0.356h-2.358
			c0.006-0.438-0.21-0.858-0.574-1.109l0.188-0.475c0.063-0.162-0.017-0.344-0.178-0.407c-0.162-0.064-0.346,0.016-0.408,0.178
			l-0.189,0.481c-0.583-0.07-1.165,0.257-1.39,0.83l-0.197,0.504h-8.354c-0.244,0-0.462,0.136-0.568,0.355
			c-0.107,0.219-0.08,0.475,0.071,0.667l6.914,8.8v4.926c0,1.123-0.913,2.035-2.035,2.035h-1.007c-0.174,0-0.315,0.141-0.315,0.313
			c0,0.174,0.141,0.315,0.315,0.315h6.713c0.173,0,0.313-0.142,0.313-0.315c0-0.173-0.141-0.313-0.313-0.313h-1.007
			c-1.122,0-2.035-0.914-2.035-2.035v-4.926L185.71,48.882z M180.046,51.845c0.328,0,0.475,0.063,0.66,0.143
			c0.211,0.091,0.451,0.193,0.907,0.193c0.402,0,0.637-0.08,0.831-0.16l-3.962,5.043l-3.961-5.043c0.194,0.08,0.428,0.16,0.829,0.16
			c0.456,0,0.696-0.103,0.907-0.193c0.186-0.079,0.332-0.143,0.659-0.143c0.327,0,0.473,0.063,0.658,0.143
			c0.211,0.091,0.451,0.193,0.907,0.193s0.696-0.103,0.907-0.193C179.571,51.908,179.719,51.845,180.046,51.845z M180.889,47.585
			c0.14-0.355,0.542-0.529,0.898-0.391c0.275,0.107,0.445,0.38,0.438,0.666h-1.443L180.889,47.585z M171.751,48.489l13.464-0.002
			l0.001,0.006l-2.141,2.725c-0.388,0.016-0.606,0.108-0.802,0.191c-0.186,0.08-0.333,0.143-0.66,0.143
			c-0.326,0-0.474-0.063-0.659-0.143c-0.125-0.055-0.261-0.111-0.444-0.149l0.64-1.628c0.063-0.162-0.016-0.345-0.178-0.408
			c-0.162-0.063-0.345,0.017-0.408,0.178l-0.715,1.822c-0.332,0.025-0.531,0.109-0.709,0.187c-0.186,0.08-0.333,0.143-0.659,0.143
			c-0.327,0-0.474-0.063-0.659-0.143c-0.211-0.091-0.45-0.193-0.906-0.193s-0.695,0.103-0.907,0.193
			c-0.186,0.08-0.332,0.143-0.659,0.143c-0.327,0-0.473-0.063-0.659-0.143c-0.194-0.083-0.413-0.177-0.801-0.191l-2.142-2.725
			L171.751,48.489z M179.113,64.644h-1.265c0.257-0.218,0.472-0.481,0.632-0.781C178.642,64.161,178.857,64.426,179.113,64.644z"/>
	</g>
	<path fill="#333132" d="M179.243,52.758l-1.055,2.685c-0.063,0.162,0.017,0.346,0.178,0.408l0.115,0.022
		c0.125,0,0.244-0.076,0.293-0.2l1.056-2.686c0.063-0.162-0.017-0.344-0.179-0.408S179.308,52.597,179.243,52.758z"/>
	<g>
		<path fill="#333132" d="M349.168,57.712c-0.069-0.096-0.181-0.152-0.3-0.152h-0.456l0.008-0.136c0.04-0.634,0.09-1.422-0.25-2.157
			c-0.354-0.771-1.054-1.313-2.123-1.649c0.592-1.67,0.001-3.167-0.632-4.158c-1.004-1.571-2.646-2.715-3.715-2.938
			c-0.164-1.357-1.322-2.414-2.724-2.414c-1.515,0-2.746,1.23-2.746,2.744c0,0.582,0.188,1.146,0.522,1.608
			c-0.488,0.034-0.978,0.056-1.445,0.077c-0.93,0.042-1.809,0.081-2.457,0.206c-0.179,0.034-0.559,0.108-0.864,0.3l-0.054,0.023
			c-0.737,0.408-1.411,1.603-1.638,2.904c-0.163,0.939-0.059,1.754,0.29,2.342c-0.5,0.416-1.415,1.241-1.516,3.25h-0.777
			c-0.119,0-0.229,0.056-0.3,0.151c-0.07,0.097-0.09,0.218-0.054,0.331l2.506,7.878c0.206,0.649,0.802,1.086,1.484,1.086h0.713
			h0.001h0.002h1.58h0.001l0,0h8.706h0.001h1.58h0.002h0.001h0.714c0.682,0,1.277-0.437,1.484-1.086l2.507-7.878
			C349.258,57.931,349.237,57.808,349.168,57.712z M336.973,46.851c0-1.104,0.898-2.002,2.004-2.002
			c1.088,0,1.975,0.871,2.002,1.953c-0.313,1.006-1.713,1.396-3.301,1.576C337.229,47.995,336.973,47.447,336.973,46.851z
			 M332.992,49.472c0.595-0.115,1.447-0.154,2.35-0.193c2.45-0.11,5.469-0.246,6.256-2.021c0.313,0.075,0.783,0.279,1.347,0.68
			c0.729,0.519,1.385,1.201,1.846,1.922c0.547,0.858,1.063,2.153,0.535,3.572c-0.775-0.172-1.868-0.352-3.108-0.556
			c-2.085-0.344-4.68-0.772-6.688-1.321c-0.978-0.267-3.248-0.973-3.248-1.761C332.281,49.707,332.467,49.571,332.992,49.472z
			 M331.027,52.097c0.109-0.636,0.358-1.271,0.656-1.738c0.82,1.543,5.051,2.363,10.412,3.248c1.4,0.23,2.61,0.431,3.362,0.615
			c2.382,0.586,2.296,1.952,2.221,3.156l-0.011,0.182h-9.902c-0.281-0.113-1.449-0.584-2.727-1.188
			c-1.904-0.9-3.176-1.678-3.678-2.247C330.998,53.711,330.876,52.972,331.027,52.097z M334.552,66.265l-1.086-7.963h1.99
			l0.362,7.963H334.552z M332.941,66.265l-1.81-7.963h1.585l1.086,7.963H332.941z M336.199,58.302h1.494h0.002h0.002h0.512v7.963
			h-1.648L336.199,58.302z M331.066,54.875c1.035,0.935,3.233,1.999,4.787,2.685h-6.041
			C329.903,55.892,330.605,55.258,331.066,54.875z M331.152,65.697l-2.353-7.396h1.57l1.81,7.963h-0.25
			C331.572,66.265,331.261,66.037,331.152,65.697z M346.009,65.697c-0.107,0.34-0.421,0.567-0.777,0.567h-0.25l1.246-5.481
			c0.045-0.2-0.08-0.398-0.279-0.444c-0.199-0.045-0.398,0.08-0.444,0.279l-1.283,5.646h-0.86l0.535-3.932
			c0.027-0.203-0.113-0.391-0.316-0.417c-0.203-0.028-0.391,0.114-0.418,0.317l-0.551,4.031h-1.267l0.108-2.382
			c0.01-0.205-0.149-0.378-0.354-0.387c-0.205-0.007-0.378,0.149-0.388,0.354l-0.108,2.416h-1.65v-7.964h2.011l-0.181,3.966
			c-0.01,0.205,0.149,0.377,0.354,0.387h0.018c0.197,0,0.361-0.155,0.371-0.354l0.182-3.999h1.99l-0.32,2.35
			c-0.027,0.203,0.113,0.39,0.316,0.418l0.051,0.002c0.184,0,0.343-0.135,0.367-0.32l0.334-2.449h1.586l-0.166,0.734
			c-0.047,0.199,0.08,0.398,0.279,0.443l0.082,0.01c0.17,0,0.322-0.117,0.361-0.289l0.204-0.898h1.569L346.009,65.697z"/>
	</g>
	<path fill="#333132" d="M338.977,45.688c-0.205,0-0.371,0.166-0.371,0.371s0.166,0.371,0.371,0.371c0.231,0,0.42,0.189,0.42,0.42
		c0,0.205,0.166,0.371,0.371,0.371s0.371-0.166,0.371-0.371C340.139,46.21,339.617,45.688,338.977,45.688z"/>
	<path fill="#333132" d="M339.712,54.735c0.274,0.043,0.538,0.082,0.79,0.123l0.059,0.004c0.18,0,0.338-0.131,0.365-0.314
		c0.031-0.203-0.105-0.392-0.311-0.424c-0.252-0.039-0.518-0.08-0.793-0.122c-0.201-0.03-0.392,0.108-0.422,0.312
		C339.371,54.517,339.509,54.706,339.712,54.735z"/>
	<path fill="#333132" d="M342.081,55.112c3.941,0.662,3.99,0.957,4.048,1.297c0.03,0.181,0.188,0.31,0.364,0.31l0.063-0.005
		c0.202-0.033,0.34-0.225,0.305-0.427c-0.073-0.448-0.263-0.784-0.969-1.073c-0.621-0.254-1.725-0.503-3.688-0.833
		c-0.202-0.034-0.393,0.103-0.428,0.306C341.741,54.887,341.879,55.078,342.081,55.112z"/>
	<path fill="#333132" d="M341.93,49.134c0.168,0.117,0.327,0.242,0.474,0.37l0.244,0.093c0.104,0,0.205-0.044,0.279-0.127
		c0.135-0.154,0.119-0.389-0.035-0.522c-0.166-0.146-0.347-0.288-0.537-0.421c-0.168-0.116-0.398-0.075-0.517,0.093
		S341.762,49.017,341.93,49.134z"/>
	<path fill="#333132" d="M343.749,51.996c0,0.205,0.167,0.371,0.371,0.371c0.205,0,0.371-0.166,0.371-0.371
		c0-0.198-0.038-0.908-0.534-1.769c-0.103-0.178-0.329-0.238-0.507-0.137s-0.238,0.329-0.137,0.508
		C343.737,51.332,343.749,51.931,343.749,51.996z"/>
	<path fill="#333132" d="M303.538,50.808c0-1.617-1.229-2.951-2.801-3.121c0.02-0.146,0.031-0.293,0.031-0.439
		c0-1.732-1.409-3.141-3.142-3.141c-1.731,0-3.141,1.408-3.141,3.141c0,0.146,0.01,0.294,0.031,0.439
		c-1.572,0.17-2.802,1.504-2.802,3.121c0,0.971,0.45,1.879,1.2,2.469l0.005,0.02l4.354,13.454c0.05,0.153,0.191,0.257,0.354,0.257
		c0.161,0,0.303-0.104,0.354-0.257l4.353-13.454l0.005-0.018C303.094,52.685,303.538,51.783,303.538,50.808z M302.796,50.808
		c0,0.813-0.402,1.558-1.08,2.004h-2.637c-0.677-0.446-1.081-1.191-1.081-2.004c0-1.322,1.076-2.397,2.399-2.397
		C301.72,48.41,302.796,49.485,302.796,50.808z M297.977,52.812h-0.698c0.134-0.16,0.25-0.334,0.349-0.519
		C297.726,52.478,297.842,52.649,297.977,52.812z M297.627,44.849c1.323,0,2.398,1.075,2.398,2.398c0,0.15-0.016,0.301-0.042,0.447
		c-1.021,0.136-1.89,0.763-2.356,1.635c-0.468-0.873-1.336-1.499-2.356-1.635c-0.027-0.146-0.042-0.297-0.042-0.447
		C295.229,45.924,296.304,44.849,297.627,44.849z M292.458,50.808c0-1.322,1.076-2.397,2.399-2.397c1.322,0,2.398,1.075,2.398,2.397
		c0,0.813-0.403,1.558-1.081,2.004h-2.638C292.867,52.369,292.458,51.617,292.458,50.808z M299.657,53.554l-0.189,0.076
		c-0.189,0.076-0.282,0.292-0.207,0.482c0.059,0.145,0.197,0.232,0.346,0.232l0.137-0.027l1.699-0.68l-0.732,2.264l-0.847,0.34
		c-0.19,0.076-0.283,0.292-0.207,0.482c0.058,0.145,0.197,0.232,0.345,0.232l0.138-0.027l0.274-0.109l-0.732,2.264l-1.425,0.57
		c-0.189,0.076-0.283,0.291-0.207,0.481c0.059,0.146,0.197,0.233,0.345,0.233l0.138-0.027L299.383,60l-0.731,2.265l-1.813,0.726
		l-0.564-1.746l0.897-0.359c0.19-0.075,0.283-0.292,0.207-0.481c-0.076-0.19-0.292-0.283-0.481-0.207l-0.853,0.341l-0.563-1.744
		l1.098-0.438c0.19-0.076,0.283-0.293,0.207-0.482s-0.292-0.283-0.482-0.207l-1.052,0.42l-0.563-1.745l1.434-0.573
		c0.19-0.076,0.283-0.293,0.207-0.482c-0.076-0.19-0.292-0.283-0.482-0.207l-1.387,0.555l-0.673-2.08h5.871V53.554z M297.627,65.431
		l-0.561-1.731l1.287-0.515L297.627,65.431z"/>
	<path fill="#333132" d="M294.857,49.992c0.449,0,0.815,0.366,0.815,0.815c0,0.205,0.166,0.371,0.371,0.371s0.371-0.166,0.371-0.371
		c0-0.858-0.699-1.558-1.558-1.558c-0.205,0-0.371,0.167-0.371,0.371C294.486,49.826,294.652,49.992,294.857,49.992z"/>
	<path fill="#333132" d="M297.627,46.431c0.45,0,0.816,0.366,0.816,0.816c0,0.205,0.166,0.371,0.371,0.371s0.371-0.167,0.371-0.371
		c0-0.859-0.699-1.559-1.559-1.559c-0.205,0-0.371,0.166-0.371,0.371S297.422,46.431,297.627,46.431z"/>
	<path fill="#333132" d="M300.026,49.621c0,0.205,0.166,0.371,0.371,0.371c0.449,0,0.815,0.366,0.815,0.815
		c0,0.205,0.166,0.371,0.371,0.371s0.371-0.166,0.371-0.371c0-0.858-0.699-1.558-1.558-1.558
		C300.192,49.25,300.026,49.417,300.026,49.621z"/>
	<path fill="#333132" d="M297.349,55.248l0.139-0.026l0.822-0.33c0.189-0.076,0.282-0.291,0.206-0.481
		c-0.075-0.19-0.292-0.283-0.481-0.207l-0.823,0.329c-0.189,0.076-0.283,0.292-0.207,0.482
		C297.063,55.159,297.201,55.248,297.349,55.248z"/>
	<path fill="#333132" d="M297.637,57.131c-0.189,0.076-0.282,0.292-0.207,0.481c0.06,0.146,0.198,0.234,0.346,0.234l0.138-0.027
		l0.841-0.336c0.19-0.076,0.283-0.293,0.207-0.482s-0.292-0.283-0.481-0.206L297.637,57.131z"/>
	<path fill="#333132" d="M146.999,62.704h-0.421v-6.355c0-1.078-0.876-1.955-1.954-1.955h-0.42v-6.354
		c0-1.078-0.877-1.954-1.954-1.954h-11.079c-1.077,0-1.954,0.876-1.954,1.954v6.354h-0.421c-1.077,0-1.953,0.877-1.953,1.955v6.355
		h-0.421c-0.641,0-1.162,0.521-1.162,1.163c0,0.641,0.521,1.161,1.162,1.161h20.577c0.641,0,1.162-0.521,1.162-1.161
		C148.161,63.226,147.64,62.704,146.999,62.704z M131.171,46.827h11.079c0.668,0,1.212,0.543,1.212,1.212
		c0,0.45-0.366,0.815-0.816,0.815c-0.448,0-0.814-0.365-0.814-0.815c0-0.205-0.166-0.371-0.371-0.371s-0.371,0.166-0.371,0.371
		c0,0.45-0.366,0.815-0.816,0.815c-0.448,0-0.814-0.365-0.814-0.815c0-0.205-0.167-0.371-0.371-0.371
		c-0.205,0-0.371,0.166-0.371,0.371c0,0.45-0.366,0.815-0.816,0.815c-0.449,0-0.815-0.365-0.815-0.815
		c0-0.205-0.166-0.371-0.371-0.371c-0.204,0-0.37,0.166-0.37,0.371c0,0.45-0.366,0.815-0.816,0.815
		c-0.449,0-0.815-0.365-0.815-0.815c0-0.205-0.166-0.371-0.371-0.371c-0.204,0-0.371,0.166-0.371,0.371
		c0,0.45-0.365,0.815-0.814,0.815c-0.45,0-0.816-0.365-0.816-0.815c0-0.205-0.166-0.371-0.371-0.371s-0.371,0.166-0.371,0.371
		c0,0.45-0.366,0.815-0.816,0.815c-0.448,0-0.814-0.365-0.814-0.815C129.959,47.37,130.502,46.827,131.171,46.827z M129.959,53.554
		h8.334c0.205,0,0.371-0.167,0.371-0.371c0-0.205-0.166-0.371-0.371-0.371h-8.334v-3.446c0.237,0.146,0.517,0.231,0.814,0.231
		c0.477,0,0.901-0.214,1.188-0.551c0.286,0.336,0.712,0.551,1.188,0.551s0.9-0.214,1.188-0.551c0.286,0.336,0.712,0.551,1.188,0.551
		c0.477,0,0.901-0.214,1.188-0.551c0.286,0.336,0.712,0.551,1.188,0.551c0.477,0,0.901-0.214,1.188-0.551
		c0.286,0.336,0.712,0.551,1.187,0.551c0.477,0,0.901-0.214,1.188-0.551c0.286,0.336,0.712,0.551,1.187,0.551
		c0.301,0,0.579-0.085,0.816-0.231v3.446h-1.212c-0.204,0-0.371,0.166-0.371,0.371s0.167,0.371,0.371,0.371h1.212v0.84h-13.503
		v-0.84H129.959z M128.796,55.136h15.828c0.669,0,1.212,0.543,1.212,1.213c0,0.449-0.366,0.815-0.815,0.815
		s-0.815-0.366-0.815-0.815c0-0.205-0.166-0.371-0.371-0.371s-0.371,0.166-0.371,0.371c0,0.449-0.366,0.815-0.816,0.815
		c-0.448,0-0.814-0.366-0.814-0.815c0-0.205-0.166-0.371-0.371-0.371s-0.371,0.166-0.371,0.371c0,0.449-0.366,0.815-0.816,0.815
		c-0.448,0-0.814-0.366-0.814-0.815c0-0.205-0.167-0.371-0.371-0.371c-0.205,0-0.371,0.166-0.371,0.371
		c0,0.449-0.366,0.815-0.816,0.815c-0.449,0-0.815-0.366-0.815-0.815c0-0.205-0.166-0.371-0.371-0.371
		c-0.204,0-0.37,0.166-0.37,0.371c0,0.449-0.366,0.815-0.816,0.815c-0.449,0-0.815-0.366-0.815-0.815
		c0-0.205-0.166-0.371-0.371-0.371c-0.204,0-0.371,0.166-0.371,0.371c0,0.449-0.365,0.815-0.815,0.815
		c-0.449,0-0.815-0.366-0.815-0.815c0-0.205-0.166-0.371-0.371-0.371s-0.371,0.166-0.371,0.371c0,0.449-0.366,0.815-0.815,0.815
		s-0.815-0.366-0.815-0.815c0-0.205-0.166-0.371-0.371-0.371s-0.371,0.166-0.371,0.371c0,0.449-0.366,0.815-0.815,0.815
		s-0.815-0.366-0.815-0.815C127.585,55.681,128.128,55.136,128.796,55.136z M127.585,61.862h13.082c0.205,0,0.371-0.165,0.371-0.37
		s-0.166-0.371-0.371-0.371h-13.082v-3.446c0.237,0.146,0.517,0.231,0.814,0.231c0.477,0,0.901-0.214,1.188-0.552
		c0.286,0.336,0.712,0.552,1.187,0.552c0.477,0,0.901-0.214,1.188-0.552c0.286,0.336,0.712,0.552,1.188,0.552s0.9-0.214,1.188-0.552
		c0.286,0.336,0.712,0.552,1.188,0.552c0.477,0,0.901-0.214,1.188-0.552c0.286,0.336,0.712,0.552,1.188,0.552
		c0.477,0,0.901-0.214,1.188-0.552c0.286,0.336,0.712,0.552,1.187,0.552c0.477,0,0.901-0.214,1.188-0.552
		c0.286,0.336,0.712,0.552,1.187,0.552c0.477,0,0.901-0.214,1.188-0.552c0.286,0.336,0.712,0.552,1.188,0.552
		c0.3,0,0.578-0.085,0.815-0.231v3.446h-1.211c-0.205,0-0.371,0.167-0.371,0.371c0,0.205,0.166,0.37,0.371,0.37h1.211v0.842h-18.251
		v-0.842H127.585z M146.999,64.287h-20.577c-0.231,0-0.42-0.188-0.42-0.42c0-0.232,0.188-0.42,0.42-0.42h20.577
		c0.23,0,0.42,0.188,0.42,0.42C147.419,64.099,147.23,64.287,146.999,64.287z"/>
	<path fill="#333132" d="M143.041,61.121h-0.791c-0.205,0-0.371,0.167-0.371,0.371c0,0.205,0.166,0.37,0.371,0.37h0.791
		c0.205,0,0.371-0.165,0.371-0.37C143.412,61.288,143.246,61.121,143.041,61.121z"/>
	<path fill="#333132" d="M140.667,52.812h-0.791c-0.205,0-0.371,0.166-0.371,0.371s0.166,0.371,0.371,0.371h0.791
		c0.205,0,0.371-0.167,0.371-0.371C141.038,52.978,140.872,52.812,140.667,52.812z"/>
	<path fill="#333132" d="M135.523,50.437c-0.204,0-0.37,0.168-0.37,0.371v0.396c0,0.205,0.165,0.371,0.37,0.371
		s0.371-0.167,0.371-0.371v-0.396C135.895,50.604,135.729,50.437,135.523,50.437z"/>
	<path fill="#333132" d="M137.897,50.437c-0.204,0-0.37,0.168-0.37,0.371v0.396c0,0.205,0.165,0.371,0.37,0.371
		s0.371-0.167,0.371-0.371v-0.396C138.269,50.604,138.103,50.437,137.897,50.437z"/>
	<path fill="#333132" d="M140.271,51.575c0.205,0,0.371-0.167,0.371-0.371v-0.396c0-0.205-0.166-0.371-0.371-0.371
		c-0.204,0-0.371,0.168-0.371,0.371v0.396C139.9,51.409,140.068,51.575,140.271,51.575z"/>
	<path fill="#333132" d="M142.646,51.575c0.205,0,0.371-0.167,0.371-0.371v-0.396c0-0.205-0.166-0.371-0.371-0.371
		c-0.204,0-0.37,0.168-0.37,0.371v0.396C142.275,51.409,142.441,51.575,142.646,51.575z"/>
	<path fill="#333132" d="M130.774,50.437c-0.203,0-0.369,0.168-0.369,0.371v0.396c0,0.205,0.166,0.371,0.369,0.371
		c0.205,0,0.371-0.167,0.371-0.371v-0.396C131.146,50.604,130.979,50.437,130.774,50.437z"/>
	<path fill="#333132" d="M133.149,50.437c-0.204,0-0.37,0.168-0.37,0.371v0.396c0,0.205,0.166,0.371,0.37,0.371
		s0.371-0.167,0.371-0.371v-0.396C133.521,50.604,133.354,50.437,133.149,50.437z"/>
	<path fill="#333132" d="M135.523,58.747c-0.204,0-0.37,0.166-0.37,0.371v0.396c0,0.204,0.165,0.37,0.37,0.37
		s0.371-0.166,0.371-0.37v-0.396C135.895,58.913,135.729,58.747,135.523,58.747z"/>
	<path fill="#333132" d="M137.897,58.747c-0.204,0-0.37,0.166-0.37,0.371v0.396c0,0.204,0.165,0.37,0.37,0.37
		s0.371-0.166,0.371-0.37v-0.396C138.269,58.913,138.103,58.747,137.897,58.747z"/>
	<path fill="#333132" d="M140.271,58.747c-0.204,0-0.371,0.166-0.371,0.371v0.396c0,0.204,0.167,0.37,0.371,0.37
		c0.205,0,0.371-0.166,0.371-0.37v-0.396C140.643,58.913,140.477,58.747,140.271,58.747z"/>
	<path fill="#333132" d="M142.646,59.885c0.205,0,0.371-0.166,0.371-0.37v-0.396c0-0.205-0.166-0.371-0.371-0.371
		c-0.204,0-0.37,0.166-0.37,0.371v0.396C142.275,59.719,142.441,59.885,142.646,59.885z"/>
	<path fill="#333132" d="M145.021,59.885c0.204,0,0.371-0.166,0.371-0.37v-0.396c0-0.205-0.167-0.371-0.371-0.371
		c-0.205,0-0.371,0.166-0.371,0.371v0.396C144.649,59.719,144.815,59.885,145.021,59.885z"/>
	<path fill="#333132" d="M128.4,58.747c-0.203,0-0.37,0.166-0.37,0.371v0.396c0,0.204,0.167,0.37,0.37,0.37
		c0.205,0,0.371-0.166,0.371-0.37v-0.396C128.771,58.913,128.605,58.747,128.4,58.747z"/>
	<path fill="#333132" d="M130.774,58.747c-0.203,0-0.369,0.166-0.369,0.371v0.396c0,0.204,0.166,0.37,0.369,0.37
		c0.205,0,0.371-0.166,0.371-0.37v-0.396C131.146,58.913,130.979,58.747,130.774,58.747z"/>
	<path fill="#333132" d="M133.149,58.747c-0.204,0-0.37,0.166-0.37,0.371v0.396c0,0.204,0.166,0.37,0.37,0.37
		s0.371-0.166,0.371-0.37v-0.396C133.521,58.913,133.354,58.747,133.149,58.747z"/>
	<g>
		<path fill="#333132" d="M66.34,55.259l-1.795-1.322l0.243-0.73c0.114-0.344-0.022-0.713-0.333-0.9l-1.34-0.804
			c-0.184-0.108-0.404-0.138-0.608-0.079L62.4,51.465c-0.168-0.22-0.395-0.597-0.52-1.136c-0.077-0.333-0.286-0.609-0.604-0.797
			c-0.375-0.223-0.842-0.292-1.248-0.27c0.004-0.437-0.235-0.846-0.644-1.049l-0.03-0.015c-0.016-0.179-0.053-0.435-0.143-0.709
			c-0.227-0.691-0.669-1.171-1.281-1.386c-0.602-0.211-1.009-0.164-1.335-0.127c-0.424,0.047-0.729,0.082-1.491-0.453
			c-0.674-0.474-1.314-0.453-1.83-0.438c-0.308,0.01-0.574,0.018-0.82-0.063l-0.006-0.002l-1.146-0.845
			c-0.111-0.083-0.263-0.095-0.387-0.032c-0.125,0.063-0.204,0.191-0.204,0.332v20.181c0,1.295,1.054,2.35,2.351,2.35h11.078
			c1.297,0,2.35-1.054,2.35-2.35v-9.101C66.49,55.438,66.436,55.329,66.34,55.259z M64.072,52.942l0.013,0.029l-0.168,0.502
			l-1.374-1.013l0.156-0.313l0.015-0.013l0.021,0.002L64.072,52.942z M59.055,48.878c0.178,0.089,0.268,0.285,0.221,0.479
			l-0.147,0.588l-2.009-1.48l0.154-0.154c0.129-0.129,0.323-0.16,0.485-0.08L59.055,48.878z M60.898,50.17
			c0.145,0.085,0.229,0.192,0.26,0.327c0.156,0.669,0.441,1.145,0.662,1.432l-2.047-1.509l0.099-0.392
			C60.183,49.972,60.611,50,60.898,50.17z M54.679,46.132c0.994,0.697,1.507,0.639,2.002,0.583c0.304-0.034,0.565-0.063,1.007,0.091
			c0.387,0.137,0.66,0.438,0.814,0.896l0.025,0.083l-0.438-0.22c-0.447-0.224-0.986-0.137-1.342,0.219l-0.234,0.234l-2.977-2.194
			C53.928,45.819,54.285,45.856,54.679,46.132z M65.749,64.658c0,0.887-0.722,1.606-1.608,1.606H53.063
			c-0.888,0-1.607-0.721-1.607-1.606V45.212l6.904,5.087l5.916,5.916c0.071,0.072,0.168,0.108,0.263,0.108s0.188-0.036,0.262-0.108
			c0.146-0.146,0.146-0.38,0-0.524l-2.453-2.453l3.403,2.507L65.749,64.658L65.749,64.658z"/>
	</g>
	<path fill="#333132" d="M52.928,46.985c-0.145-0.146-0.38-0.146-0.523,0c-0.146,0.145-0.146,0.379,0,0.523L64.275,59.38
		c0.071,0.072,0.168,0.109,0.263,0.109s0.188-0.037,0.262-0.109c0.146-0.145,0.146-0.38,0-0.523L52.928,46.985z"/>
	<path fill="#333132" d="M52.928,50.151c-0.145-0.146-0.38-0.146-0.523,0c-0.145,0.145-0.146,0.379,0,0.523l11.871,11.871
		c0.071,0.072,0.168,0.109,0.263,0.109s0.188-0.037,0.262-0.109c0.146-0.145,0.146-0.38,0-0.523L52.928,50.151z"/>
	<path fill="#333132" d="M52.928,53.315c-0.145-0.145-0.38-0.145-0.523,0c-0.145,0.146-0.146,0.379,0,0.524L63.88,65.315
		c0.071,0.072,0.167,0.109,0.262,0.109c0.097,0,0.19-0.037,0.263-0.109c0.146-0.145,0.146-0.379,0-0.523L52.928,53.315z"/>
	<path fill="#333132" d="M52.928,56.481c-0.145-0.145-0.38-0.145-0.523,0c-0.146,0.146-0.146,0.381,0,0.525l8.31,8.311
		c0.071,0.072,0.168,0.108,0.263,0.108c0.096,0,0.189-0.036,0.262-0.108c0.146-0.146,0.146-0.381,0-0.524L52.928,56.481z"/>
	<path fill="#333132" d="M52.928,59.647c-0.145-0.146-0.38-0.146-0.523,0c-0.146,0.145-0.146,0.379,0,0.524l5.145,5.144
		c0.072,0.072,0.167,0.109,0.262,0.109c0.096,0,0.19-0.037,0.264-0.109c0.145-0.145,0.145-0.379,0-0.523L52.928,59.647z"/>
	<path fill="#333132" d="M52.928,62.813c-0.145-0.146-0.38-0.146-0.523,0c-0.146,0.145-0.146,0.379,0,0.523l1.979,1.979
		c0.072,0.072,0.168,0.109,0.264,0.109c0.094,0,0.188-0.037,0.262-0.109c0.146-0.145,0.146-0.379,0-0.523L52.928,62.813z"/>
	<path fill="#333132" d="M26.398,54.622c-0.205,0-0.371-0.166-0.371-0.371c0-2.396-0.906-4.206-2.693-5.376
		c-1.602-1.048-3.855-1.58-6.704-1.58s-5.104,0.531-6.705,1.58c-1.787,1.17-2.692,2.979-2.692,5.376
		c0,0.205-0.166,0.371-0.371,0.371S6.49,54.456,6.49,54.251c0-4.964,3.602-7.698,10.141-7.698s10.141,2.734,10.141,7.698
		C26.77,54.456,26.604,54.622,26.398,54.622z"/>
	<circle fill="#333132" cx="10.347" cy="50.969" r="0.371"/>
	<circle fill="#333132" cx="22.91" cy="50.969" r="0.371"/>
	<circle fill="#333132" cx="21.427" cy="61.949" r="0.371"/>
	<circle fill="#333132" cx="11.831" cy="52.007" r="0.371"/>
	<path fill="#333132" d="M23.43,64.565H9.826c-1.84,0-3.338-1.498-3.338-3.34c0-0.205,0.166-0.371,0.371-0.371
		s0.371,0.168,0.371,0.371c0,1.433,1.164,2.598,2.596,2.598H23.43c1.432,0,2.598-1.165,2.598-2.598c0-0.205,0.166-0.371,0.371-0.371
		s0.371,0.168,0.371,0.371C26.77,63.067,25.271,64.565,23.43,64.565z"/>
	<path fill="#333132" d="M26.398,58.331H6.859c-1.021,0-1.854-0.832-1.854-1.854v-0.742c0-1.023,0.832-1.855,1.854-1.855h19.539
		c1.021,0,1.854,0.832,1.854,1.855v0.742C28.252,57.499,27.42,58.331,26.398,58.331z M6.859,54.622
		c-0.612,0-1.111,0.499-1.111,1.113v0.742c0,0.613,0.499,1.112,1.111,1.112h19.539c0.613,0,1.112-0.499,1.112-1.112v-0.742
		c0-0.614-0.499-1.113-1.112-1.113H6.859z"/>
	<path fill="#333132" d="M24.131,60.804c-1.029,0-1.57-0.285-2.049-0.537c-0.46-0.242-0.855-0.451-1.703-0.451
		c-0.846,0-1.242,0.209-1.702,0.451c-0.478,0.252-1.019,0.537-2.049,0.537c-1.029,0-1.57-0.285-2.048-0.537
		c-0.461-0.242-0.856-0.451-1.702-0.451c-0.847,0-1.243,0.209-1.703,0.451c-0.478,0.252-1.019,0.537-2.048,0.537
		s-1.571-0.285-2.049-0.537c-0.459-0.242-0.856-0.451-1.702-0.451c-0.205,0-0.371-0.166-0.371-0.371s0.166-0.371,0.371-0.371
		c1.028,0,1.569,0.285,2.049,0.537c0.459,0.242,0.856,0.453,1.702,0.453s1.242-0.209,1.702-0.453
		c0.478-0.252,1.019-0.537,2.049-0.537c1.028,0,1.569,0.285,2.048,0.537c0.46,0.242,0.855,0.453,1.702,0.453
		s1.243-0.209,1.703-0.453c0.478-0.252,1.019-0.537,2.048-0.537s1.57,0.285,2.049,0.537c0.46,0.242,0.855,0.453,1.703,0.453
		c0.846,0,1.242-0.209,1.702-0.453c0.478-0.252,1.019-0.537,2.049-0.537c0.205,0,0.37,0.166,0.37,0.371s-0.165,0.371-0.37,0.371
		c-0.847,0-1.243,0.209-1.703,0.451C25.701,60.519,25.16,60.804,24.131,60.804z"/>
	<g>
		<path fill="#333132" d="M104.465,51.204c0-0.584-0.436-1.07-0.997-1.15l-1.022-1.021c-0.369-0.369-0.859-0.572-1.381-0.572h-3.326
			v-1.497c0-0.576,0.41-1.075,0.975-1.188l4.663-0.933c0.2-0.04,0.331-0.235,0.291-0.437s-0.236-0.331-0.437-0.291l-4.664,0.933
			c-0.91,0.183-1.57,0.988-1.57,1.916v1.497H93.67c-0.521,0-1.012,0.203-1.381,0.572l-1.022,1.023
			c-0.563,0.08-0.997,0.565-0.997,1.149c0,0.519,0.342,0.958,0.811,1.106l0.73,12.416c0.028,0.5,0.373,0.912,0.834,1.047v0.072
			c0,0.641,0.521,1.161,1.161,1.161h7.123c0.642,0,1.162-0.521,1.162-1.161v-0.072c0.46-0.135,0.806-0.547,0.835-1.047l0.73-12.416
			C104.124,52.162,104.465,51.722,104.465,51.204z M93.669,49.201h7.396c0.323,0,0.627,0.126,0.856,0.354l0.485,0.486h-10.08
			l0.486-0.486C93.041,49.327,93.346,49.201,93.669,49.201z M100.928,66.267h-7.123c-0.23,0-0.42-0.189-0.42-0.42v-0.025h7.963
			v0.025C101.348,66.077,101.158,66.267,100.928,66.267z M102.184,64.683c-0.013,0.223-0.197,0.396-0.419,0.396h-8.796
			c-0.223,0-0.406-0.174-0.42-0.396l-0.725-12.315h11.084L102.184,64.683z M103.302,51.625H91.431c-0.231,0-0.42-0.188-0.42-0.42
			s0.188-0.42,0.42-0.42h11.871c0.231,0,0.421,0.188,0.421,0.42S103.533,51.625,103.302,51.625z"/>
	</g>
	<path fill="#333132" d="M101.646,53.208c-0.207-0.014-0.382,0.145-0.394,0.35l-0.047,0.791c-0.013,0.204,0.146,0.379,0.349,0.393
		h0.021c0.195,0,0.359-0.152,0.371-0.35l0.047-0.791C102.006,53.396,101.85,53.22,101.646,53.208z"/>
	<path fill="#333132" d="M101.506,55.582c-0.205-0.013-0.381,0.144-0.393,0.349l-0.279,4.75c-0.012,0.204,0.145,0.379,0.349,0.392
		l0.022,0.001c0.193,0,0.357-0.152,0.369-0.35l0.279-4.75C101.865,55.771,101.71,55.594,101.506,55.582z"/>
	<path fill="#333132" d="M211.346,56.272c0-3.957,3.222-7.179,7.18-7.179c0.186,0,0.335-0.149,0.335-0.335s-0.15-0.335-0.335-0.335
		c-4.329,0-7.851,3.521-7.851,7.851c0,1.783,0.583,3.463,1.686,4.858c0.065,0.084,0.165,0.128,0.264,0.128l0.208-0.072
		c0.146-0.114,0.17-0.326,0.056-0.471C211.879,59.44,211.346,57.903,211.346,56.272z"/>
	<path fill="#333132" d="M226.04,55.938c-0.186,0-0.335,0.149-0.335,0.334c0,3.959-3.221,7.18-7.179,7.18
		c-1.704,0-3.355-0.607-4.65-1.709c-0.141-0.12-0.353-0.104-0.473,0.038c-0.12,0.141-0.104,0.353,0.038,0.473
		c1.417,1.205,3.223,1.869,5.085,1.869c4.329,0,7.85-3.521,7.85-7.851C226.375,56.088,226.226,55.938,226.04,55.938z"/>
	<path fill="#333132" d="M227.175,52.828l-8.096,2.891l2.891-8.095c0.063-0.175-0.027-0.367-0.202-0.43
		c-1.041-0.372-2.133-0.561-3.242-0.561c-2.575,0-4.995,1.003-6.816,2.823c-1.82,1.821-2.823,4.241-2.823,6.815
		c0,2.576,1.003,4.996,2.823,6.816c1.821,1.821,4.241,2.823,6.816,2.823s4.995-1.002,6.815-2.823c1.82-1.82,2.823-4.24,2.823-6.816
		c0-1.109-0.188-2.2-0.561-3.241C227.541,52.856,227.349,52.767,227.175,52.828z M218.525,65.241c-4.945,0-8.969-4.023-8.969-8.969
		c0-4.944,4.023-8.967,8.969-8.967c0.92,0,1.827,0.139,2.698,0.414l-0.376,1.053c-0.271-0.084-0.549-0.152-0.827-0.207
		c-0.183-0.035-0.357,0.084-0.394,0.267c-0.035,0.183,0.084,0.358,0.267,0.394c0.244,0.047,0.488,0.107,0.729,0.182l-2.412,6.754
		c-0.043,0.122-0.013,0.258,0.079,0.35s0.229,0.122,0.35,0.079l6.755-2.412c0.072,0.239,0.134,0.483,0.182,0.729
		c0.031,0.16,0.171,0.271,0.329,0.271l0.063-0.006c0.183-0.035,0.302-0.211,0.267-0.393c-0.055-0.278-0.124-0.557-0.208-0.827
		l1.053-0.376c0.275,0.872,0.415,1.777,0.415,2.699C227.493,61.218,223.47,65.241,218.525,65.241z"/>
	<path fill="#333132" d="M225.914,48.64c-0.134-0.129-0.346-0.125-0.474,0.01c-0.128,0.134-0.124,0.346,0.01,0.474
		c0.187,0.179,0.365,0.369,0.531,0.565c0.065,0.08,0.162,0.121,0.257,0.121l0.216-0.08c0.142-0.119,0.16-0.33,0.041-0.473
		C226.314,49.042,226.118,48.834,225.914,48.64z"/>
	<path fill="#333132" d="M229.571,51.063c-0.477-1.332-1.258-2.567-2.263-3.572c-1.006-1.006-2.241-1.788-3.573-2.264l-0.256,0.013
		l-0.173,0.19l-3.129,8.762c-0.044,0.121-0.013,0.258,0.079,0.35l0.237,0.1l0.113-0.021l7.069-2.524l0,0l1.691-0.604l0.19-0.173
		L229.571,51.063z M227.759,51.354c-0.136-0.336-0.296-0.662-0.477-0.976c-0.093-0.16-0.298-0.215-0.458-0.122
		c-0.16,0.094-0.215,0.299-0.122,0.458c0.161,0.277,0.303,0.567,0.425,0.864l-6.08,2.172l2.171-6.08
		c0.42,0.173,0.824,0.387,1.205,0.637c0.155,0.102,0.363,0.059,0.464-0.098c0.103-0.154,0.06-0.363-0.097-0.464
		c-0.425-0.279-0.876-0.515-1.347-0.707l0.379-1.062c1.119,0.448,2.154,1.131,3.01,1.986c0.856,0.855,1.538,1.891,1.987,3.01
		L227.759,51.354z"/>
	<path fill="#333132" d="M215.499,56.084c0.093-0.16,0.039-0.365-0.122-0.458c-0.16-0.093-0.365-0.038-0.458,0.122
		c-0.067,0.118-0.193,0.19-0.329,0.19c-0.21,0-0.38-0.17-0.38-0.381c0-0.209,0.17-0.38,0.38-0.38c0.186,0,0.335-0.149,0.335-0.335
		s-0.149-0.335-0.335-0.335c-0.58,0-1.051,0.472-1.051,1.052s0.47,1.049,1.05,1.049C214.963,56.608,215.313,56.407,215.499,56.084z"
		/>
	<path fill="#333132" d="M224.68,50.974c-0.159-0.094-0.365-0.039-0.458,0.123c-0.067,0.116-0.193,0.189-0.329,0.189
		c-0.209,0-0.381-0.17-0.381-0.38c0-0.209,0.17-0.38,0.381-0.38c0.186,0,0.335-0.15,0.335-0.336s-0.15-0.334-0.335-0.334
		c-0.579,0-1.052,0.471-1.052,1.051s0.473,1.051,1.052,1.051c0.373,0,0.723-0.201,0.909-0.525
		C224.896,51.271,224.841,51.065,224.68,50.974z"/>
	<path fill="#333132" d="M221.484,60.907c0.374,0,0.723-0.201,0.91-0.525c0.093-0.16,0.037-0.365-0.122-0.458
		c-0.161-0.093-0.366-0.038-0.458,0.123c-0.068,0.117-0.194,0.19-0.33,0.19c-0.209,0-0.38-0.17-0.38-0.381
		c0-0.209,0.171-0.379,0.38-0.379c0.186,0,0.335-0.15,0.335-0.336s-0.15-0.334-0.335-0.334c-0.58,0-1.052,0.471-1.052,1.051
		C220.432,60.437,220.904,60.907,221.484,60.907z"/>
	<path fill="#333132" d="M217.781,59.685c-0.068,0.116-0.194,0.189-0.33,0.189c-0.209,0-0.38-0.17-0.38-0.38s0.17-0.38,0.38-0.38
		c0.186,0,0.335-0.15,0.335-0.336s-0.15-0.334-0.335-0.334c-0.58,0-1.051,0.472-1.051,1.051s0.472,1.051,1.051,1.051
		c0.374,0,0.723-0.201,0.91-0.525c0.093-0.16,0.038-0.364-0.122-0.457C218.079,59.468,217.874,59.522,217.781,59.685z"/>
	<path fill="#333132" d="M217.094,51.599c0.186,0,0.335-0.149,0.335-0.334c0-0.186-0.149-0.336-0.335-0.336
		c-0.58,0-1.051,0.473-1.051,1.051c0,0.58,0.472,1.052,1.051,1.052c0.374,0,0.723-0.201,0.91-0.525
		c0.093-0.159,0.038-0.364-0.123-0.458c-0.16-0.093-0.365-0.038-0.458,0.122c-0.067,0.117-0.193,0.19-0.329,0.19
		c-0.21,0-0.38-0.172-0.38-0.381S216.884,51.599,217.094,51.599z"/>
	<path fill="#333132" d="M215.783,53.89c-0.131,0.131-0.131,0.344,0,0.475l0.716,0.716l0.237,0.098l0.236-0.098
		c0.132-0.131,0.132-0.345,0-0.476l-0.715-0.715C216.127,53.758,215.914,53.758,215.783,53.89z"/>
	<path fill="#333132" d="M214.11,53.29c0.131-0.131,0.131-0.344,0-0.475s-0.343-0.131-0.476,0l-0.356,0.357
		c-0.131,0.131-0.131,0.344,0,0.475l0.236,0.098l0.237-0.098L214.11,53.29z"/>
	<path fill="#333132" d="M213.994,58.541l-0.358,0.358c-0.131,0.131-0.131,0.344,0,0.475l0.237,0.098l0.237-0.098l0.357-0.357
		c0.131-0.132,0.131-0.344,0-0.476C214.337,58.41,214.125,58.41,213.994,58.541z"/>
	<path fill="#333132" d="M219.599,58.044h0.716c0.186,0,0.335-0.15,0.335-0.335s-0.15-0.335-0.335-0.335h-0.716
		c-0.186,0-0.335,0.15-0.335,0.335C219.263,57.894,219.413,58.044,219.599,58.044z"/>
	<path fill="#333132" d="M223.893,56.966l0.236-0.098l0.358-0.358c0.131-0.131,0.131-0.343,0-0.475s-0.343-0.132-0.475,0
		l-0.357,0.358c-0.131,0.131-0.131,0.344,0,0.475L223.893,56.966z"/>
	<path fill="#333132" d="M223.297,59.377l0.237,0.099l0.237-0.099c0.131-0.131,0.131-0.343,0-0.474l-0.357-0.358
		c-0.131-0.131-0.344-0.131-0.475,0s-0.131,0.343,0,0.476L223.297,59.377z"/>
	<path fill="#333132" d="M218.883,62.334l0.237-0.099l0.357-0.357c0.131-0.131,0.131-0.344,0-0.475
		c-0.132-0.131-0.344-0.131-0.475,0l-0.357,0.357c-0.132,0.131-0.132,0.344,0,0.475L218.883,62.334z"/>
	<path fill="#333132" d="M216.735,57.329c0.186,0,0.336-0.15,0.336-0.335c0-0.187-0.15-0.335-0.336-0.335h-0.357
		c-0.185,0-0.335,0.15-0.335,0.335s0.15,0.335,0.335,0.335H216.735z"/>
	<path fill="#333132" d="M224.013,49.354l0.237,0.098l0.237-0.098c0.131-0.131,0.131-0.344,0-0.476l-0.358-0.358
		c-0.131-0.131-0.343-0.131-0.474,0s-0.131,0.345,0,0.476L224.013,49.354z"/>
	<path fill="#333132" d="M225.682,50.216c-0.186,0-0.335,0.15-0.335,0.335v0.711c0,0.187,0.15,0.335,0.335,0.335
		c0.186,0,0.336-0.149,0.336-0.335v-0.711C226.018,50.367,225.867,50.216,225.682,50.216z"/>
	<path fill="#333132" d="M215.783,61.524l0.237,0.098l0.236-0.098c0.131-0.131,0.131-0.344,0-0.476l-0.357-0.358
		c-0.131-0.131-0.344-0.131-0.476,0c-0.131,0.132-0.131,0.344,0,0.476L215.783,61.524z"/>
	<path fill="#333132" d="M222.104,56.972c0.186,0,0.335-0.15,0.335-0.336v-0.359c0-0.186-0.15-0.334-0.335-0.334
		c-0.186,0-0.335,0.149-0.335,0.334v0.358C221.769,56.819,221.918,56.972,222.104,56.972z"/>
	<path fill="#333132" d="M213.396,56.756l-0.358-0.358c-0.131-0.131-0.343-0.131-0.474,0c-0.132,0.131-0.132,0.344,0,0.475
		l0.356,0.357l0.237,0.099l0.237-0.099C213.526,57.099,213.526,56.887,213.396,56.756z"/>
	<path fill="#333132" d="M218.547,50.194v0.356c0,0.187,0.15,0.335,0.335,0.335c0.186,0,0.335-0.15,0.335-0.335v-0.356
		c0-0.187-0.149-0.336-0.335-0.336C218.697,49.858,218.547,50.009,218.547,50.194z"/>
	<path fill="#333132" d="M266.665,47.46c-2.163-2.163-5.038-3.354-8.097-3.354c-3.06,0-5.935,1.19-8.098,3.354
		c-2.161,2.163-3.354,5.038-3.354,8.098c0,3.059,1.191,5.934,3.354,8.096c2.163,2.164,5.039,3.354,8.098,3.354
		c3.058,0,5.934-1.19,8.097-3.354c2.163-2.162,3.354-5.037,3.354-8.096C270.02,52.498,268.828,49.623,266.665,47.46z
		 M266.141,63.129c-2.022,2.022-4.712,3.136-7.571,3.136c-2.86,0-5.55-1.113-7.572-3.136c-2.021-2.022-3.137-4.712-3.137-7.571
		c0-2.86,1.113-5.551,3.137-7.572c2.023-2.022,4.712-3.137,7.572-3.137c2.859,0,5.549,1.114,7.571,3.137
		c2.022,2.021,3.137,4.712,3.137,7.572C269.277,58.417,268.163,61.106,266.141,63.129z"/>
	<path fill="#333132" d="M264.547,52.448c-0.187,0.084-0.27,0.304-0.185,0.49c0.373,0.824,0.563,1.707,0.563,2.619
		c0,2.295-1.245,4.403-3.215,5.525V47.644c0-0.147-0.087-0.281-0.222-0.341c-0.135-0.059-0.292-0.032-0.4,0.067
		c-0.366,0.338-0.679,0.77-0.945,1.264c-0.514-0.115-1.042-0.176-1.572-0.176c-0.142,0-0.281,0.005-0.42,0.014v-0.83
		c0-0.205-0.166-0.371-0.371-0.371s-0.371,0.168-0.371,0.371v0.912c-0.288,0.049-0.569,0.113-0.843,0.193v-1.104
		c0-0.205-0.166-0.371-0.371-0.371s-0.371,0.166-0.371,0.371v1.368c-0.291,0.123-0.571,0.265-0.841,0.423v-1.791
		c0-0.205-0.167-0.371-0.371-0.371c-0.205,0-0.371,0.166-0.371,0.371v2.291c-1.684,1.299-2.771,3.336-2.771,5.623
		c0,1.892,0.735,3.67,2.071,5.01c0.072,0.072,0.167,0.109,0.263,0.109s0.189-0.035,0.263-0.107c0.145-0.146,0.146-0.381,0.001-0.525
		c-1.195-1.2-1.854-2.793-1.854-4.486c0-1.834,0.781-3.49,2.028-4.65v1.484c0,0.512,0.332,0.946,0.792,1.103v9.187
		c0,0.642,0.521,1.163,1.163,1.163c0.641,0,1.162-0.521,1.162-1.163v-0.128c0.398,0.068,0.805,0.104,1.212,0.104
		c0.271,0,0.546-0.016,0.815-0.047v0.07c0,0.642,0.521,1.163,1.163,1.163c0.643,0,1.162-0.521,1.162-1.163v-0.756
		c2.412-1.191,3.957-3.664,3.957-6.365c0-1.02-0.211-2.004-0.628-2.925C264.953,52.446,264.734,52.362,264.547,52.448z
		 M257.406,49.308v1.922h-0.841v-1.705C256.838,49.435,257.119,49.36,257.406,49.308z M255.823,49.825v1.404h-0.841v-0.918
		C255.249,50.129,255.53,49.966,255.823,49.825z M256.615,62.679c0,0.232-0.189,0.42-0.42,0.42c-0.232,0-0.421-0.188-0.421-0.42
		v-9.496c0-0.205-0.166-0.371-0.371-0.371c-0.232,0-0.42-0.188-0.42-0.42v-0.42h1.211h0.001h0.001h1.21v0.42
		c0,0.231-0.188,0.42-0.42,0.42c-0.205,0-0.371,0.166-0.371,0.371V62.679z M258.568,61.913c-0.408,0-0.814-0.04-1.212-0.116v-8.304
		c0.46-0.155,0.792-0.59,0.792-1.102v-3.177c0.139-0.009,0.278-0.015,0.42-0.015c0.419,0,0.836,0.042,1.243,0.123
		c-1.331,3.164-1.226,7.97-1.219,8.222c0.005,0.201,0.169,0.361,0.371,0.361h0.421v3.954
		C259.115,61.896,258.841,61.913,258.568,61.913z M260.967,62.679c0,0.232-0.188,0.42-0.42,0.42c-0.231,0-0.42-0.188-0.42-0.42
		v-5.144c0-0.205-0.166-0.371-0.371-0.371h-0.424c0-0.644,0.027-2.067,0.223-3.64c0.268-2.138,0.75-3.783,1.413-4.84L260.967,62.679
		L260.967,62.679z"/>
	<path fill="#333132" d="M262.681,50.71c0.264,0.225,0.511,0.471,0.734,0.734c0.074,0.086,0.178,0.131,0.283,0.131l0.24-0.088
		c0.155-0.133,0.175-0.367,0.042-0.523c-0.25-0.294-0.525-0.568-0.819-0.818c-0.156-0.133-0.391-0.113-0.523,0.043
		C262.506,50.343,262.525,50.578,262.681,50.71z"/>
	<path fill="#333132" d="M254.146,63.542c-1.449-0.805-2.653-1.986-3.482-3.421c-0.103-0.179-0.33-0.238-0.507-0.136
		s-0.238,0.33-0.135,0.507c0.896,1.551,2.198,2.83,3.765,3.698l0.18,0.047c0.13,0,0.257-0.068,0.324-0.19
		C254.39,63.867,254.325,63.642,254.146,63.542z"/>
	<path fill="#333132" d="M263.131,47.651c0.26,0.15,0.517,0.315,0.76,0.492l0.217,0.069c0.114,0,0.229-0.054,0.301-0.153
		c0.12-0.168,0.082-0.398-0.084-0.519c-0.264-0.19-0.54-0.368-0.821-0.531c-0.177-0.103-0.404-0.042-0.507,0.136
		C262.894,47.322,262.954,47.549,263.131,47.651z"/>
	<path fill="#333132" d="M268.222,53.501c-0.394-1.859-1.314-3.559-2.663-4.911c-0.146-0.146-0.381-0.146-0.525,0
		c-0.146,0.146-0.146,0.379,0,0.524c1.248,1.252,2.099,2.822,2.464,4.541c0.037,0.175,0.19,0.294,0.362,0.294l0.077-0.009
		C268.136,53.897,268.264,53.702,268.222,53.501z"/>
</g>
</svg>
