<?xml version="1.0" encoding="utf-8"?>
<!-- Generator: Adobe Illustrator 16.0.0, SVG Export Plug-In . SVG Version: 6.00 Build 0)  -->
<!DOCTYPE svg PUBLIC "-//W3C//DTD SVG 1.1//EN" "http://www.w3.org/Graphics/SVG/1.1/DTD/svg11.dtd">
<svg version="1.1" id="Layer_1" xmlns="http://www.w3.org/2000/svg" xmlns:xlink="http://www.w3.org/1999/xlink" x="0px" y="0px"
	 width="132.25px" height="71.328px" viewBox="0 0 132.25 71.328" enable-background="new 0 0 132.25 71.328" xml:space="preserve">
<g>
	<path fill="#FFFFFF" d="M6.875,66.164c0,0,4.75-45.5,41.25-55l2.75-1c0,0-31,28.5-33,57.75l-10.5,0.25L6.875,66.164z"/>
	
		<linearGradient id="SVGID_1_" gradientUnits="userSpaceOnUse" x1="252" y1="755.3359" x2="384.25" y2="755.3359" gradientTransform="matrix(1 0 0 1 -252 -719.6719)">
		<stop  offset="0" style="stop-color:#C49A6C"/>
		<stop  offset="0.2202" style="stop-color:#C49A6C"/>
		<stop  offset="1" style="stop-color:#8B5E3C"/>
	</linearGradient>
	<path fill="url(#SVGID_1_)" d="M129.533,66.328h-2.321c-0.789-32.452-26.907-58.607-59.344-59.455
		c1.141-0.622,1.923-1.816,1.923-3.207C69.791,1.642,68.15,0,66.125,0c-2.025,0-3.667,1.642-3.667,3.667
		c0,1.395,0.788,2.593,1.934,3.213C32.066,7.849,6.074,33.956,5.288,66.328h-2.57c-1.501,0-2.718,1.119-2.718,2.5
		s1.217,2.5,2.718,2.5h126.815c1.499,0,2.717-1.119,2.717-2.5S131.032,66.328,129.533,66.328z M14.875,66.333h-5.25
		c0,0,1-41.25,38-54C47.625,12.333,17.625,26.333,14.875,66.333z"/>
	<g>
		<path fill="#42210B" d="M56.4,47.702c0,0.45-0.092,0.875-0.273,1.269c-0.183,0.396-0.427,0.74-0.731,1.034
			c-0.306,0.297-0.659,0.529-1.064,0.698c-0.404,0.17-0.831,0.255-1.283,0.255h-0.953c-0.449,0-0.877-0.085-1.282-0.255
			c-0.404-0.169-0.758-0.401-1.063-0.698c-0.306-0.294-0.55-0.64-0.731-1.034c-0.182-0.394-0.273-0.818-0.273-1.269v-0.527
			l1.193-0.194v0.723c0,0.297,0.06,0.57,0.18,0.827c0.121,0.256,0.283,0.48,0.487,0.676c0.203,0.194,0.438,0.349,0.707,0.458
			c0.268,0.109,0.551,0.164,0.846,0.164h0.832c0.297,0,0.576-0.055,0.841-0.164s0.499-0.264,0.703-0.458s0.365-0.42,0.486-0.676
			c0.122-0.257,0.18-0.53,0.18-0.827v-0.398c0-0.455-0.09-0.834-0.268-1.138c-0.18-0.304-0.417-0.56-0.712-0.772
			c-0.295-0.213-0.63-0.393-1.004-0.541c-0.375-0.148-0.757-0.297-1.152-0.443s-0.778-0.311-1.15-0.489
			c-0.373-0.181-0.707-0.401-1.004-0.671s-0.534-0.6-0.712-0.986c-0.178-0.389-0.269-0.867-0.269-1.433v-0.25
			c0-0.45,0.086-0.874,0.255-1.271c0.168-0.395,0.402-0.74,0.697-1.033c0.295-0.295,0.643-0.529,1.041-0.698
			c0.398-0.168,0.823-0.253,1.272-0.253h0.851c0.45,0,0.874,0.085,1.269,0.253c0.394,0.169,0.74,0.403,1.035,0.698
			c0.295,0.293,0.529,0.64,0.698,1.033c0.169,0.396,0.253,0.819,0.253,1.271v0.342l-1.193,0.193v-0.535
			c0-0.298-0.056-0.572-0.166-0.827c-0.11-0.258-0.262-0.48-0.453-0.672c-0.191-0.189-0.415-0.342-0.671-0.451
			c-0.256-0.109-0.532-0.167-0.827-0.167H52.25c-0.296,0-0.571,0.058-0.827,0.167c-0.256,0.109-0.481,0.262-0.676,0.451
			c-0.194,0.191-0.347,0.414-0.458,0.672c-0.111,0.255-0.166,0.532-0.166,0.827v0.25c0,0.425,0.09,0.78,0.269,1.071
			c0.178,0.293,0.417,0.539,0.712,0.744c0.295,0.209,0.629,0.388,1.004,0.539c0.374,0.151,0.756,0.304,1.151,0.461
			c0.394,0.158,0.778,0.33,1.151,0.52c0.373,0.188,0.707,0.42,1.003,0.693c0.297,0.272,0.535,0.608,0.713,1.004
			c0.178,0.394,0.268,0.876,0.268,1.441v0.398L56.4,47.702L56.4,47.702z"/>
		<path fill="#42210B" d="M62.033,50.773c-0.347,0-0.672-0.065-0.976-0.195c-0.305-0.128-0.57-0.307-0.796-0.535
			c-0.225-0.23-0.404-0.496-0.537-0.796c-0.132-0.304-0.199-0.626-0.199-0.972v-5.892h-1.701V41.3h1.701v-2.274l1.139-0.185v2.46
			h2.404v1.083h-2.404v5.949c0,0.19,0.035,0.368,0.106,0.531c0.07,0.163,0.167,0.306,0.292,0.43
			c0.125,0.123,0.268,0.222,0.434,0.293c0.166,0.07,0.346,0.104,0.537,0.104h1.035v1.084h-1.035V50.773z"/>
		<path fill="#42210B" d="M71.105,50.773l-0.627-0.946c-0.26,0.342-0.582,0.614-0.971,0.821c-0.388,0.207-0.814,0.31-1.277,0.31
			h-0.287c-0.381,0-0.744-0.072-1.084-0.218c-0.338-0.146-0.634-0.346-0.888-0.598c-0.254-0.254-0.451-0.551-0.597-0.89
			c-0.145-0.339-0.218-0.698-0.218-1.082v-0.094c0-0.384,0.073-0.744,0.218-1.084c0.146-0.339,0.345-0.634,0.597-0.888
			c0.252-0.256,0.55-0.453,0.888-0.598c0.34-0.146,0.701-0.217,1.084-0.217h2.406V43.83c0-0.229-0.043-0.443-0.131-0.645
			c-0.087-0.201-0.203-0.373-0.352-0.521c-0.149-0.146-0.321-0.266-0.521-0.352c-0.201-0.088-0.418-0.129-0.644-0.129h-0.666
			c-0.229,0-0.442,0.041-0.644,0.129c-0.201,0.086-0.373,0.205-0.521,0.352c-0.148,0.148-0.266,0.32-0.353,0.521
			c-0.086,0.2-0.129,0.416-0.129,0.645v0.344l-1.139-0.188v-0.092c0-0.381,0.072-0.744,0.218-1.084
			c0.145-0.34,0.345-0.636,0.597-0.89c0.252-0.253,0.549-0.448,0.889-0.595c0.339-0.146,0.698-0.221,1.081-0.221h0.668
			c0.381,0,0.742,0.072,1.082,0.221c0.341,0.146,0.636,0.342,0.89,0.595c0.255,0.252,0.451,0.55,0.597,0.89s0.22,0.698,0.22,1.084
			v6.873h-0.386V50.773L71.105,50.773z M70.35,46.186h-2.404c-0.229,0-0.44,0.043-0.643,0.129c-0.199,0.088-0.375,0.205-0.521,0.355
			c-0.149,0.153-0.265,0.327-0.353,0.528c-0.086,0.198-0.129,0.416-0.129,0.645v0.397c0,0.227,0.043,0.439,0.129,0.642
			c0.087,0.2,0.203,0.374,0.353,0.522c0.146,0.148,0.322,0.265,0.521,0.353c0.201,0.086,0.415,0.13,0.643,0.13h0.759
			c0.229,0,0.442-0.044,0.644-0.13c0.2-0.088,0.373-0.202,0.521-0.353c0.148-0.148,0.265-0.322,0.352-0.522
			c0.088-0.2,0.131-0.415,0.131-0.642v-2.055H70.35z"/>
		<path fill="#42210B" d="M77.018,38.59c-0.189,0-0.367,0.034-0.529,0.105c-0.165,0.072-0.307,0.168-0.43,0.293
			c-0.125,0.125-0.222,0.268-0.293,0.434c-0.07,0.166-0.105,0.346-0.105,0.535v1.344h2.21v1.084h-2.21v8.389H74.52v-8.389h-1.711
			v-1.084h1.711v-1.283c0-0.348,0.065-0.673,0.194-0.979c0.132-0.304,0.31-0.569,0.537-0.798c0.229-0.23,0.495-0.408,0.797-0.538
			c0.3-0.13,0.624-0.195,0.97-0.195h1.045v1.084L77.018,38.59L77.018,38.59z"/>
		<path fill="#42210B" d="M82.46,38.59c-0.19,0-0.369,0.034-0.533,0.105c-0.163,0.072-0.305,0.168-0.43,0.293
			c-0.123,0.125-0.222,0.268-0.292,0.434s-0.104,0.346-0.104,0.535v1.344h2.209v1.084h-2.209v8.389h-1.139v-8.389h-1.712v-1.084
			h1.712v-1.283c0-0.348,0.064-0.673,0.193-0.979c0.129-0.304,0.308-0.569,0.537-0.798c0.228-0.23,0.492-0.408,0.795-0.538
			c0.302-0.13,0.625-0.195,0.972-0.195h1.044v1.084L82.46,38.59L82.46,38.59z"/>
	</g>
</g>
</svg>
