<?xml version="1.0" encoding="utf-8"?>
<!-- Generator: Adobe Illustrator 16.0.0, SVG Export Plug-In . SVG Version: 6.00 Build 0)  -->
<!DOCTYPE svg PUBLIC "-//W3C//DTD SVG 1.1//EN" "http://www.w3.org/Graphics/SVG/1.1/DTD/svg11.dtd">
<svg version="1.1" id="Layer_1" xmlns="http://www.w3.org/2000/svg" xmlns:xlink="http://www.w3.org/1999/xlink" x="0px" y="0px"
	 width="22.025px" height="21.861px" viewBox="0 0 22.025 21.861" enable-background="new 0 0 22.025 21.861" xml:space="preserve">
<g id="User_-_Orange">
	<path fill="#F79C7C" d="M11.012,4.11c2.104,0,3.81,1.707,3.81,3.812s-1.706,3.81-3.81,3.81c-2.104,0-3.81-1.705-3.81-3.81
		S8.908,4.11,11.012,4.11"/>
	<path fill="#F79C7C" d="M14.124,11.399c-0.826,0.739-1.917,1.19-3.11,1.19c-1.195,0-2.285-0.451-3.111-1.19
		c-2.219,1.178-3.744,3.578-3.76,6.352h13.741C17.867,14.976,16.344,12.577,14.124,11.399z"/>
</g>
<g>
	<path fill="#F15A24" d="M11.012,0.479c5.763,0,10.45,4.688,10.45,10.451c0,5.763-4.688,10.451-10.45,10.451
		c-5.764,0-10.451-4.688-10.451-10.451C0.561,5.167,5.25,0.479,11.012,0.479 M11.012-0.021c-6.05,0-10.951,4.902-10.951,10.951
		c0,6.048,4.901,10.951,10.951,10.951c6.047,0,10.95-4.902,10.95-10.951C21.964,4.882,17.059-0.021,11.012-0.021z"/>
</g>
</svg>
